<svg width="16" height="16" viewBox="0 0 16 16" fill="none" xmlns="http://www.w3.org/2000/svg">
<path d="M15.6937 7.99735C15.6937 7.29351 15.1257 6.72382 14.4219 6.72035C14.7442 6.58446 14.9828 6.33185 15.1065 6.03218C15.232 5.73079 15.2424 5.38062 15.1065 5.05482C14.8382 4.40501 14.0944 4.09489 13.4428 4.36143C13.6884 4.1123 13.8121 3.78827 13.8121 3.46247C13.8121 3.13495 13.6867 2.80916 13.4375 2.56004C12.941 2.06177 12.1344 2.06177 11.6362 2.55655C11.7686 2.23251 11.7581 1.88409 11.6344 1.58442C11.509 1.28303 11.2686 1.02868 10.9428 0.89278C10.293 0.624488 9.54905 0.931107 9.27728 1.57744C9.27554 1.22727 9.13268 0.910206 8.90271 0.680233C8.671 0.448528 8.3522 0.305664 8.00028 0.305664C7.29644 0.305664 6.72675 0.873603 6.72327 1.57744C6.58739 1.25515 6.33478 1.01648 6.03511 0.891028C5.73372 0.765593 5.38355 0.755141 5.05775 0.891028C4.40794 1.16106 4.09782 1.90321 4.36436 2.5548C4.11523 2.30742 3.7912 2.18546 3.4654 2.18546C3.13788 2.18546 2.81209 2.31089 2.56297 2.56003C2.06645 3.05654 2.0647 3.86315 2.55948 4.36142C2.23544 4.22902 1.88874 4.23947 1.58735 4.36316C1.28596 4.4886 1.03161 4.729 0.89571 5.0548C0.627417 5.70461 0.934037 6.44852 1.58037 6.72029C1.2302 6.72203 0.913136 6.86489 0.683163 7.09486C0.451458 7.32657 0.308594 7.64537 0.308594 7.99729C0.308594 8.70113 0.876532 9.27082 1.57862 9.27429C1.25633 9.41018 1.01766 9.66279 0.893958 9.96246C0.768523 10.2656 0.759813 10.614 0.893958 10.9398C1.16399 11.5896 1.90614 11.8998 2.55773 11.6332C2.31035 11.8823 2.18839 12.2064 2.18839 12.5322C2.18839 12.8597 2.31382 13.1855 2.56295 13.4346C3.05947 13.9311 3.86608 13.9329 4.36435 13.4381C4.23195 13.7621 4.2424 14.1105 4.36609 14.4102C4.49153 14.7116 4.73193 14.966 5.05773 15.1019C5.70754 15.3719 6.4532 15.0635 6.72497 14.4154C6.72672 14.7656 6.86957 15.0827 7.09954 15.3127C7.33125 15.5444 7.65006 15.6872 8.00198 15.6872C8.70581 15.6872 9.2755 15.1193 9.27898 14.4154C9.41486 14.7377 9.66747 14.9764 9.96714 15.1019C10.2685 15.2273 10.6187 15.236 10.9445 15.1019C11.5943 14.8336 11.9044 14.0897 11.6379 13.4381C11.887 13.6837 12.2111 13.8074 12.5369 13.8074C12.8644 13.8074 13.1902 13.682 13.4393 13.4329C13.9376 12.9346 13.9376 12.1297 13.4428 11.6315C13.7668 11.7639 14.1152 11.7534 14.4149 11.6297C14.7163 11.5043 14.9706 11.2639 15.1065 10.9381C15.3766 10.2883 15.0682 9.54436 14.4219 9.2726C14.772 9.27085 15.0891 9.128 15.3191 8.89803C15.5508 8.66806 15.6937 8.34923 15.6937 7.99735V7.99735ZM11.5265 6.78654C11.3958 6.91721 11.2652 7.04787 11.1345 7.17854C10.4498 7.8632 9.76518 8.54786 9.08224 9.2308C8.63972 9.67332 8.19724 10.1158 7.75296 10.5601C7.37492 10.9381 6.77736 10.9259 6.39409 10.567C6.33486 10.5113 6.27737 10.4573 6.21813 10.4033C5.63975 9.86147 5.06136 9.31965 4.48294 8.77959C4.10139 8.42069 4.11535 7.7848 4.47597 7.42072C4.85226 7.04092 5.45333 7.0566 5.83484 7.41375C5.89408 7.46775 5.95157 7.5235 6.0108 7.57751C6.35574 7.90155 6.70244 8.2256 7.04738 8.54789C7.64144 7.95208 8.23729 7.35799 8.83135 6.76392C9.27387 6.3214 9.71636 5.87892 10.1606 5.43465C10.5317 5.06358 11.1467 5.05836 11.5195 5.42768C11.8906 5.79352 11.8975 6.41549 11.5265 6.78655L11.5265 6.78654Z" fill="#231F20"/>
<path d="M11.3125 6.57064C10.5999 7.28317 9.88566 7.99746 9.17312 8.71L7.56338 10.3197C7.53027 10.3528 7.49718 10.3842 7.46233 10.4138C7.51634 10.3703 7.45014 10.419 7.44142 10.426C7.42749 10.4347 7.41355 10.4434 7.39961 10.4521C7.37871 10.4643 7.35606 10.4748 7.33341 10.487C7.26547 10.5218 7.37174 10.4765 7.32644 10.4887C7.27592 10.5027 7.2254 10.5183 7.17488 10.5305C7.15745 10.534 7.11739 10.534 7.18359 10.5305C7.1592 10.5323 7.13655 10.5358 7.11216 10.5358C7.07209 10.5375 7.03202 10.534 6.99195 10.5323C6.91181 10.5288 7.05467 10.548 6.97801 10.5305C6.96233 10.5271 6.94665 10.5236 6.93097 10.5201C6.88393 10.5079 6.8369 10.494 6.7916 10.4765C6.86129 10.5044 6.78638 10.4713 6.77418 10.4661C6.75153 10.4539 6.73063 10.4417 6.70972 10.4295C6.69578 10.4208 6.68185 10.4103 6.66791 10.4016C6.59997 10.3581 6.70972 10.4434 6.64875 10.3877C6.55989 10.3058 6.47279 10.2239 6.38394 10.142C6.01459 9.7971 5.647 9.45216 5.27766 9.10546C5.09821 8.93647 4.91704 8.7675 4.73759 8.5985C4.70101 8.56365 4.66616 8.53056 4.63306 8.49223C4.59648 8.45042 4.62958 8.48874 4.63655 8.49745C4.62261 8.47829 4.61042 8.45913 4.59822 8.43822C4.58777 8.4208 4.53899 8.31279 4.56686 8.38421C4.54944 8.34066 4.5355 8.29711 4.52505 8.25007C4.51982 8.23091 4.50937 8.20129 4.51111 8.18213C4.5024 8.25355 4.51286 8.19432 4.51111 8.16993C4.50937 8.1316 4.50763 8.09154 4.50937 8.05321C4.50937 8.03753 4.51111 8.02185 4.51286 8.00617C4.51808 7.92777 4.49718 8.07062 4.5146 7.99397C4.52679 7.94867 4.5355 7.90338 4.55118 7.85808C4.55641 7.84415 4.58951 7.7762 4.55467 7.84415L4.57557 7.80233C4.59648 7.76052 4.62261 7.72045 4.64874 7.68213C4.64352 7.69084 4.60867 7.72917 4.64526 7.68735C4.66094 7.66993 4.67662 7.65077 4.69404 7.63509C4.70623 7.62289 4.71843 7.6107 4.73062 7.60024C4.74282 7.58805 4.75675 7.5776 4.76895 7.56714C4.73933 7.58979 4.73933 7.58979 4.76721 7.56888C4.80902 7.54275 4.85083 7.51836 4.89438 7.49571C4.96233 7.45913 4.83689 7.51139 4.91006 7.48874C4.93271 7.48178 4.95536 7.47306 4.97801 7.46784C5.00066 7.46087 5.02505 7.45739 5.04769 7.45216C5.12261 7.43474 4.98324 7.4539 5.05989 7.44867C5.10693 7.44519 5.15396 7.44345 5.20275 7.44519C5.21843 7.44519 5.29682 7.45739 5.21668 7.44345C5.24107 7.44693 5.26372 7.45216 5.28637 7.45739C5.30902 7.46261 5.33341 7.46784 5.35606 7.47481C5.36477 7.47655 5.45013 7.50617 5.41006 7.49223C5.36477 7.47655 5.43794 7.50617 5.43968 7.50617C5.4693 7.5201 5.49717 7.53578 5.52505 7.55321C5.53898 7.56192 5.55292 7.57063 5.56686 7.58108C5.59473 7.60199 5.59299 7.60024 5.56512 7.5776C5.57731 7.58805 5.59125 7.5985 5.60344 7.6107C6.02331 7.98352 6.424 8.37898 6.83339 8.76225C6.9536 8.87549 7.14524 8.88246 7.26371 8.76225L9.56509 6.46087C9.75324 6.27272 9.94313 6.08283 10.1313 5.89468C10.2184 5.80757 10.3055 5.71698 10.3961 5.63162C10.4135 5.61419 10.4327 5.59851 10.4518 5.58284C10.3961 5.62813 10.4605 5.57935 10.4693 5.57238C10.4902 5.55845 10.5111 5.54625 10.532 5.53406C10.5389 5.53057 10.6226 5.49225 10.5825 5.50793C10.5389 5.52535 10.6121 5.49747 10.6139 5.49747C10.6365 5.4905 10.6592 5.48354 10.6835 5.47657C10.7062 5.47134 10.7306 5.46611 10.7532 5.46089C10.8299 5.44347 10.6888 5.46089 10.7672 5.45915C10.8072 5.4574 10.8456 5.45566 10.8856 5.4574C10.91 5.45915 10.9327 5.46089 10.9571 5.46263C10.8734 5.45392 10.9762 5.46786 10.9936 5.47308C11.032 5.48179 11.0703 5.49573 11.1086 5.50793C11.0389 5.48354 11.1121 5.50967 11.1243 5.51664C11.147 5.52709 11.1679 5.53929 11.1888 5.55148C11.2097 5.56368 11.2306 5.57762 11.2497 5.59155C11.1905 5.55323 11.2567 5.59678 11.2654 5.60549C11.302 5.63859 11.3369 5.67518 11.3682 5.7135C11.3212 5.65775 11.3717 5.71873 11.3787 5.72918C11.3961 5.75531 11.4118 5.78319 11.4274 5.8128C11.4344 5.825 11.464 5.89817 11.4362 5.82674C11.4449 5.84939 11.4536 5.8703 11.4605 5.89469C11.4675 5.91733 11.4745 5.93998 11.4797 5.96263C11.4832 5.98005 11.4971 6.08284 11.4884 5.99747C11.4936 6.04451 11.4954 6.09155 11.4936 6.13859C11.4936 6.16298 11.4902 6.18563 11.4884 6.21002C11.4936 6.12639 11.4849 6.22744 11.4797 6.24486C11.4693 6.2919 11.4536 6.33546 11.4379 6.38075C11.4623 6.30932 11.4362 6.38249 11.4292 6.39469C11.4152 6.42256 11.3996 6.45044 11.3821 6.47831C11.3752 6.48876 11.3264 6.55148 11.3734 6.49573C11.356 6.52361 11.3351 6.54625 11.3125 6.57065C11.201 6.68563 11.1905 6.88947 11.3125 7.00096C11.4327 7.11072 11.6243 7.12291 11.7428 7.00096C12.0825 6.65252 12.2062 6.11073 12.0215 5.65429C11.8264 5.16998 11.3682 4.84418 10.8386 4.84768C10.5999 4.84943 10.3508 4.91911 10.1504 5.05152C9.91001 5.21179 9.71664 5.44523 9.51454 5.64733C9.09295 6.06892 8.67133 6.49054 8.24974 6.91213C7.77762 7.38424 7.30376 7.85811 6.83161 8.33026H7.26193C6.86299 7.95569 6.46402 7.5794 6.06333 7.20658C5.72536 6.89125 5.24276 6.74663 4.79155 6.88429C4.35776 7.01495 4.01106 7.38428 3.92569 7.83202C3.88562 8.04631 3.88562 8.26931 3.95356 8.47836C4.02848 8.71355 4.16611 8.89472 4.3438 9.06197C4.73752 9.43131 5.13127 9.79891 5.52498 10.1683C5.71836 10.3494 5.91 10.5289 6.10337 10.7101C6.2863 10.8808 6.47619 11.0202 6.72008 11.0916C7.18003 11.2258 7.65737 11.0812 7.99361 10.7484C8.38038 10.3634 8.76365 9.97839 9.15039 9.59165L11.7445 6.99757C11.8577 6.88433 11.8664 6.67703 11.7445 6.56725C11.6208 6.45924 11.4326 6.45052 11.3124 6.57073L11.3125 6.57064Z" fill="#231F20"/>
<path d="M15.9984 7.99744C15.9949 7.58107 15.8311 7.17687 15.5367 6.8807C15.2423 6.58454 14.8381 6.42076 14.4218 6.41553C14.4723 6.60543 14.5245 6.79358 14.5751 6.98347C15.2318 6.6995 15.589 5.98346 15.4862 5.28835C15.3956 4.67859 14.92 4.16468 14.3259 4.01135C14.0106 3.92947 13.6657 3.94515 13.3608 4.06536C13.4601 4.23435 13.5594 4.40508 13.657 4.57408C14.1465 4.06886 14.258 3.2901 13.9078 2.67514C13.5942 2.12287 12.9566 1.80928 12.3294 1.8929C11.9845 1.93994 11.6691 2.09325 11.42 2.33714C11.589 2.43644 11.7597 2.53575 11.9287 2.63331C12.1953 1.95734 11.9374 1.19428 11.3608 0.774413C10.8695 0.417269 10.1796 0.399844 9.6587 0.701242C9.37647 0.865003 9.14128 1.12111 9.01236 1.42075C9.20225 1.47128 9.3904 1.52354 9.5803 1.57406C9.56985 0.871977 9.09598 0.234336 8.40957 0.0531677C7.77891 -0.115822 7.12037 0.128082 6.7284 0.642004C6.52457 0.908555 6.42178 1.24129 6.41656 1.57578C6.60645 1.52526 6.7946 1.473 6.9845 1.42247C6.70052 0.765687 5.98624 0.408544 5.28938 0.511313C4.67961 0.601907 4.1657 1.0775 4.01237 1.67159C3.93049 1.98692 3.94617 2.33188 4.06638 2.63675C4.23537 2.53745 4.4061 2.43814 4.5751 2.34058C4.06988 1.85104 3.29112 1.73955 2.67616 2.08971C2.1239 2.4033 1.8103 3.04092 1.89392 3.66811C1.94096 4.01305 2.09427 4.3284 2.33644 4.57752C2.43575 4.40853 2.53505 4.2378 2.63261 4.0688C1.95317 3.80225 1.18314 4.06358 0.766771 4.64719C0.416603 5.13848 0.40093 5.82139 0.70057 6.33884C0.864331 6.62107 1.12044 6.85625 1.42008 6.98517C1.4706 6.79528 1.52287 6.60713 1.57339 6.41724C0.871304 6.42769 0.233664 6.90155 0.0524957 7.58796C-0.114751 8.21863 0.127409 8.87717 0.639612 9.26913C0.906162 9.47296 1.2389 9.57575 1.57339 9.58098C1.52287 9.39108 1.4706 9.20294 1.42008 9.01304C0.763295 9.29701 0.406151 10.0113 0.508921 10.7082C0.599514 11.3179 1.07511 11.8318 1.6692 11.9852C1.98453 12.067 2.32949 12.0514 2.63261 11.9312C2.5333 11.7622 2.434 11.5914 2.33644 11.4224C1.8469 11.9276 1.7354 12.7064 2.08557 13.3214C2.39916 13.8736 3.03677 14.1872 3.66397 14.1036C4.00891 14.0566 4.32426 13.9033 4.57337 13.6611C4.40438 13.5618 4.23366 13.4625 4.06466 13.3649C3.79811 14.0409 4.05769 14.8039 4.6326 15.2238C5.12389 15.5827 5.81377 15.5984 6.33469 15.297C6.61692 15.1332 6.85211 14.8771 6.98103 14.5775C6.79114 14.527 6.60299 14.4747 6.41309 14.4242C6.42354 15.1263 6.89741 15.7639 7.58382 15.9468C8.21448 16.1158 8.87302 15.8719 9.26499 15.3597C9.46882 15.0931 9.5716 14.7604 9.57683 14.4259C9.38694 14.4764 9.19879 14.5287 9.00889 14.5792C9.29287 15.236 10.0072 15.5932 10.704 15.4904C11.3138 15.3998 11.8277 14.9242 11.981 14.3301C12.0629 14.0148 12.0472 13.6698 11.927 13.3667C11.758 13.466 11.5873 13.5653 11.4183 13.6629C11.9235 14.1524 12.7023 14.2639 13.3172 13.9137C13.8695 13.6002 14.1831 12.9625 14.0995 12.3353C14.0524 11.9904 13.8991 11.6751 13.6552 11.4259C13.5559 11.5949 13.4566 11.7657 13.3591 11.9347C14.035 12.2012 14.7981 11.9416 15.218 11.3667C15.5769 10.8754 15.5942 10.1855 15.2911 9.66462C15.1274 9.38239 14.8713 9.14721 14.5716 9.01828C14.5211 9.20818 14.4688 9.39632 14.4183 9.58622C14.8347 9.57925 15.2354 9.41723 15.5315 9.1228C15.8312 8.81967 15.9932 8.41374 15.9984 7.99737C16.0002 7.8371 15.8573 7.68553 15.6935 7.6925C15.5263 7.69947 15.3904 7.82664 15.3887 7.99737C15.3887 8.0357 15.3869 8.07229 15.3834 8.11062C15.3782 8.19598 15.3922 8.07926 15.3817 8.12629C15.3782 8.14372 15.3747 8.16288 15.3712 8.1803C15.3643 8.21515 15.3556 8.25173 15.3434 8.28657C15.3364 8.30748 15.3294 8.33013 15.3225 8.35103C15.3138 8.37716 15.312 8.38065 15.3225 8.35277C15.2928 8.42246 15.2563 8.48866 15.2145 8.55138C15.204 8.56532 15.1935 8.581 15.1848 8.59493C15.1604 8.63152 15.2145 8.56357 15.1831 8.59668C15.1552 8.62629 15.1308 8.65591 15.103 8.68553C15.0786 8.70992 15.0524 8.73431 15.0246 8.75696C15.0037 8.77438 15.0002 8.77612 15.0246 8.7587C15.0106 8.76915 14.9967 8.7796 14.981 8.79006C14.9183 8.83361 14.8521 8.86671 14.7841 8.89981C14.7423 8.92072 14.8486 8.87716 14.7702 8.90504C14.7528 8.91026 14.7371 8.91723 14.7197 8.92246C14.6848 8.93291 14.65 8.94337 14.6152 8.95033C14.5977 8.95382 14.5786 8.9573 14.5611 8.96079C14.5037 8.97298 14.5821 8.96079 14.5472 8.96253C14.5054 8.96427 14.4636 8.9695 14.4218 8.9695C14.2929 8.97124 14.157 9.06183 14.1274 9.19249C14.0995 9.3127 14.1413 9.48343 14.2667 9.53744C14.319 9.56008 14.3713 9.58448 14.42 9.61409C14.4444 9.62803 14.4671 9.64371 14.4915 9.65939C14.5124 9.67332 14.5594 9.71514 14.5159 9.67507C14.5577 9.71165 14.5977 9.7465 14.6361 9.78656C14.6552 9.80573 14.6726 9.82663 14.6901 9.84754C14.697 9.85625 14.704 9.86496 14.7127 9.87367C14.6692 9.81967 14.7057 9.86322 14.7127 9.87716C14.7423 9.92245 14.7702 9.96775 14.7963 10.0148C14.8068 10.0357 14.8155 10.0566 14.826 10.0775C14.8469 10.1158 14.8103 10.027 14.8225 10.0688C14.8277 10.0827 14.8329 10.0984 14.8381 10.1123C14.8556 10.1629 14.8713 10.2151 14.8817 10.2674C14.8869 10.2935 14.8956 10.3214 14.8956 10.3475C14.8956 10.3458 14.8922 10.2883 14.8922 10.3232C14.8922 10.3423 14.8956 10.3615 14.8974 10.3806C14.9009 10.4312 14.9009 10.4817 14.8974 10.5322C14.8956 10.5618 14.8869 10.6176 14.8974 10.5566C14.8922 10.588 14.8869 10.6193 14.88 10.6507C14.8678 10.7064 14.8503 10.7604 14.8312 10.8127C14.8294 10.8179 14.8155 10.8562 14.8277 10.8231C14.8416 10.7866 14.8207 10.8388 14.8155 10.8475C14.8016 10.8754 14.7876 10.9033 14.7719 10.9294C14.7563 10.9556 14.7406 10.9817 14.7232 11.0078C14.7127 11.0252 14.6639 11.0827 14.7023 11.0409C14.6605 11.0897 14.6186 11.1367 14.5699 11.1803C14.5472 11.1995 14.5263 11.2204 14.5019 11.2378C14.5472 11.2029 14.488 11.2447 14.4706 11.2569C14.4218 11.2883 14.3695 11.3179 14.3173 11.3423C14.3103 11.3458 14.2615 11.3667 14.2946 11.3528C14.326 11.3406 14.2702 11.3615 14.2632 11.3632C14.2267 11.3754 14.1883 11.3876 14.15 11.3963C14.1308 11.4015 14.1117 11.405 14.0925 11.4085C14.0873 11.4103 14.0298 11.419 14.0594 11.4155C14.0943 11.4103 14.0333 11.4172 14.0263 11.419C14.0071 11.4207 13.9862 11.4224 13.9671 11.4224C13.927 11.4242 13.8869 11.4224 13.8469 11.4207C13.8312 11.419 13.8172 11.419 13.8016 11.4172C13.7127 11.4085 13.826 11.4277 13.7772 11.4137C13.6918 11.3893 13.6064 11.3719 13.5228 11.3388C13.4044 11.2918 13.2371 11.3684 13.1779 11.4782C13.1134 11.6001 13.1274 11.7482 13.2249 11.8475C13.2458 11.8684 13.2667 11.8911 13.2859 11.9137C13.2946 11.9225 13.3016 11.9329 13.3103 11.9434C13.3068 11.9399 13.2824 11.9033 13.3016 11.9312C13.3364 11.9817 13.3713 12.0322 13.4009 12.088C13.4131 12.1089 13.4235 12.1315 13.434 12.1542C13.4584 12.2047 13.4357 12.1576 13.4322 12.1489C13.4357 12.1611 13.4409 12.1716 13.4444 12.182C13.4636 12.2343 13.4793 12.2883 13.4915 12.3441C13.4967 12.3719 13.5019 12.3981 13.5072 12.4259C13.4967 12.365 13.5054 12.4225 13.5072 12.4521C13.5106 12.5078 13.5106 12.5636 13.5072 12.6193C13.5054 12.6385 13.4932 12.7204 13.5072 12.6454C13.5037 12.6698 13.4984 12.6925 13.495 12.7169C13.4828 12.7761 13.4653 12.8336 13.4462 12.8894C13.4427 12.9015 13.4375 12.912 13.434 12.9225C13.4357 12.919 13.4566 12.8737 13.441 12.905C13.4288 12.9312 13.4166 12.9573 13.4026 12.9817C13.3748 13.0322 13.3434 13.081 13.3103 13.128C13.3016 13.1402 13.2737 13.1681 13.312 13.1263C13.3033 13.135 13.2964 13.1455 13.2876 13.1559C13.2685 13.1786 13.2476 13.1995 13.2267 13.2221C13.2058 13.243 13.1849 13.2622 13.1622 13.2813C13.1518 13.29 13.1396 13.3005 13.1291 13.3092C13.1047 13.3301 13.1552 13.2935 13.1117 13.3214C13.0612 13.3545 13.0089 13.3876 12.9549 13.4137C12.9427 13.4207 12.9305 13.4259 12.9166 13.4312C12.9636 13.4068 12.9235 13.4277 12.9131 13.4329C12.8782 13.4451 12.8434 13.4573 12.8086 13.4677C12.7824 13.4747 12.7563 13.4817 12.7284 13.4869C12.7145 13.4904 12.6309 13.5026 12.6605 13.4991C12.6971 13.4956 12.6518 13.4991 12.6465 13.4991C12.6326 13.4991 12.6187 13.5009 12.6065 13.5026C12.5699 13.5043 12.5333 13.5043 12.4984 13.5043C12.4845 13.5043 12.4706 13.5026 12.4584 13.5026C12.4584 13.5026 12.3765 13.4956 12.4183 13.5009C12.4549 13.5043 12.4096 13.4991 12.4044 13.4991C12.3817 13.4956 12.3591 13.4904 12.3382 13.4852C12.272 13.4695 12.2058 13.4503 12.1431 13.4242C12.1483 13.4259 12.1831 13.4434 12.1535 13.4277C12.1326 13.4172 12.1117 13.4068 12.0908 13.3963C12.0577 13.3789 12.0263 13.3597 11.995 13.3388C11.9828 13.3319 11.9723 13.3214 11.9601 13.3144C11.9201 13.2918 11.9897 13.3406 11.9532 13.311C11.9201 13.2831 11.887 13.2552 11.8556 13.2238C11.7615 13.1333 11.5995 13.1019 11.4862 13.1768C11.3817 13.2448 11.2946 13.3946 11.3469 13.5217C11.3678 13.574 11.3869 13.628 11.4009 13.682C11.4079 13.7082 11.4148 13.736 11.42 13.7622C11.4218 13.7744 11.4235 13.7848 11.427 13.797C11.4357 13.8493 11.4253 13.7866 11.4253 13.7848C11.4288 13.7848 11.4322 13.9346 11.4322 13.9468C11.4322 13.973 11.4288 14.0008 11.4288 14.027C11.4288 14.0357 11.4288 14.0531 11.4253 14.0618C11.4497 14.0096 11.4305 14.0322 11.4253 14.0601C11.4148 14.1123 11.4044 14.1646 11.3887 14.2151C11.3817 14.2378 11.3748 14.2587 11.3678 14.2796C11.3643 14.29 11.3469 14.3353 11.3626 14.2953C11.3782 14.2569 11.3591 14.304 11.3556 14.3109C11.3329 14.358 11.3068 14.405 11.2789 14.4503C11.265 14.473 11.2493 14.4939 11.2336 14.5165C11.2302 14.5217 11.2058 14.5514 11.2302 14.5217C11.258 14.4869 11.2162 14.5374 11.211 14.5444C11.1779 14.5827 11.143 14.6176 11.1065 14.6507C11.0856 14.6698 11.0647 14.6855 11.0437 14.7029C11.0943 14.6611 11.0298 14.7116 11.0106 14.7238C10.9636 14.7552 10.9148 14.7813 10.8643 14.8057C10.8538 14.8109 10.8417 14.8162 10.8312 14.8214C10.7911 14.8388 10.8765 14.8092 10.826 14.8231C10.7911 14.8336 10.7563 14.8475 10.7214 14.858C10.6866 14.8684 10.6518 14.8754 10.6152 14.8824C10.6082 14.8841 10.5455 14.8928 10.5803 14.8893C10.6117 14.8859 10.5612 14.8911 10.5594 14.8911C10.4828 14.8946 10.4096 14.8928 10.3329 14.8876C10.2964 14.8859 10.3329 14.8876 10.3399 14.8893C10.3207 14.8859 10.3016 14.8824 10.2807 14.8789C10.2458 14.8719 10.2127 14.8632 10.1796 14.8528C10.1518 14.844 10.1239 14.8318 10.0943 14.8249C10.0472 14.8109 10.1308 14.844 10.0908 14.8249C10.0751 14.8179 10.0594 14.8109 10.0437 14.8022C9.98102 14.7709 9.92701 14.7325 9.86778 14.696C9.82946 14.6716 9.90263 14.7273 9.86778 14.696C9.85559 14.6838 9.84165 14.6733 9.82771 14.6629C9.80158 14.6402 9.77719 14.6158 9.7528 14.5914C9.72841 14.5653 9.70576 14.5392 9.68311 14.513C9.66046 14.4869 9.68834 14.5183 9.69008 14.5217C9.67789 14.5026 9.66395 14.4852 9.65175 14.4677C9.60994 14.4033 9.5751 14.3353 9.54374 14.2639C9.49322 14.1472 9.31552 14.0862 9.1988 14.1245C9.06988 14.1663 8.97755 14.2796 8.9758 14.419C8.9758 14.4468 8.97406 14.4765 8.97232 14.5043C8.97058 14.5322 8.96012 14.5932 8.97058 14.5305C8.96012 14.5879 8.94793 14.6454 8.93051 14.7029C8.9218 14.7291 8.91309 14.7552 8.90437 14.7796C8.88695 14.8318 8.92877 14.7343 8.89392 14.8022C8.86953 14.8545 8.84166 14.9033 8.8103 14.9521C8.79636 14.9747 8.77894 14.9956 8.765 15.0183C8.74584 15.0461 8.77546 15.0026 8.7772 15.0008C8.76674 15.0113 8.75803 15.0235 8.74758 15.0357C8.71274 15.0758 8.67615 15.1141 8.63608 15.1489C8.62389 15.1611 8.54723 15.2169 8.60995 15.1733C8.59079 15.1855 8.57337 15.1994 8.5542 15.2134C8.50716 15.2447 8.45664 15.2726 8.40612 15.2987C8.33818 15.3336 8.43574 15.29 8.38347 15.3092C8.35734 15.3179 8.33295 15.3284 8.30682 15.3371C8.25107 15.3545 8.19358 15.3667 8.13609 15.3789C8.12041 15.3824 8.07859 15.3824 8.14654 15.3789C8.13434 15.3789 8.12215 15.3806 8.10995 15.3824C8.08208 15.3841 8.05421 15.3859 8.02459 15.3876C7.99323 15.3876 7.96013 15.3876 7.92877 15.3859C7.91483 15.3859 7.9009 15.3841 7.88696 15.3824C7.80159 15.3771 7.91832 15.3911 7.87128 15.3806C7.80856 15.3667 7.74584 15.3545 7.68487 15.3353C7.67093 15.3301 7.58731 15.2987 7.6448 15.3231C7.6117 15.3092 7.58034 15.2935 7.54898 15.2761C7.49497 15.2465 7.44271 15.2134 7.39218 15.1751C7.434 15.2047 7.38522 15.1681 7.37128 15.1559C7.34515 15.1332 7.31902 15.1088 7.29463 15.0827C7.27024 15.0566 7.24759 15.0305 7.22494 15.0043C7.26152 15.0461 7.23191 15.013 7.22494 15.0026C7.21274 14.9834 7.20055 14.966 7.18836 14.9486C7.16919 14.919 7.15177 14.8876 7.13435 14.8562C7.12738 14.844 7.12215 14.8318 7.11693 14.8214C7.11344 14.8144 7.08557 14.7482 7.09951 14.7848C7.1117 14.8179 7.09602 14.7744 7.09602 14.7709C7.08905 14.75 7.08208 14.7291 7.07512 14.7064C7.06466 14.6716 7.05595 14.6367 7.04724 14.6019C7.04376 14.5879 7.04201 14.5758 7.03853 14.5618C7.02111 14.4782 7.03853 14.5967 7.03679 14.5479C7.03505 14.5061 7.02982 14.4643 7.02982 14.4224C7.02808 14.2935 6.93749 14.1576 6.80682 14.128C6.68662 14.1001 6.51588 14.142 6.46188 14.2674C6.43923 14.3197 6.41484 14.3719 6.38523 14.4207C6.37129 14.4451 6.35561 14.4677 6.33993 14.4921C6.32599 14.513 6.28418 14.5601 6.32425 14.5165C6.28767 14.5583 6.25282 14.5984 6.21275 14.6367C6.19359 14.6559 6.17268 14.6733 6.15178 14.6907C6.14307 14.6977 6.13436 14.7047 6.12564 14.7134C6.17965 14.6698 6.1361 14.7064 6.12216 14.7134C6.07686 14.743 6.03157 14.7709 5.98453 14.797C5.96362 14.8075 5.94272 14.8162 5.92181 14.8266C5.88523 14.8475 5.97233 14.8109 5.93052 14.8231C5.91658 14.8284 5.9009 14.8336 5.88697 14.8388C5.83645 14.8562 5.78418 14.8719 5.73192 14.8824C5.70753 14.8876 5.67791 14.8981 5.65178 14.8963C5.65352 14.8963 5.71101 14.8928 5.67617 14.8928C5.657 14.8928 5.63784 14.8963 5.61868 14.8981C5.56816 14.9015 5.51763 14.9015 5.46711 14.8981C5.43749 14.8963 5.38174 14.8876 5.44272 14.8981C5.41136 14.8928 5.38 14.8876 5.34864 14.8806C5.29289 14.8684 5.23889 14.851 5.18488 14.8319C5.17965 14.8301 5.14133 14.8162 5.17443 14.8284C5.21101 14.8423 5.15875 14.8214 5.15004 14.8162C5.12216 14.8022 5.09429 14.7883 5.06816 14.7726C5.04202 14.7569 5.01589 14.7413 4.98976 14.7238C4.97234 14.7134 4.91485 14.6646 4.95666 14.7029C4.90788 14.6611 4.86084 14.6193 4.81729 14.5705C4.79812 14.5479 4.77722 14.527 4.7598 14.5026C4.79464 14.5479 4.75283 14.4887 4.74063 14.4712C4.70927 14.4225 4.67965 14.3702 4.65527 14.3179C4.65178 14.311 4.63088 14.2622 4.64481 14.2953C4.65701 14.3266 4.6361 14.2709 4.63436 14.2639C4.62216 14.2273 4.60997 14.189 4.60126 14.1507C4.59603 14.1315 4.59255 14.1123 4.58906 14.0932C4.58732 14.088 4.57861 14.0305 4.58209 14.0601C4.58732 14.0967 4.58035 14.0339 4.57861 14.027C4.57687 14.0078 4.57513 13.9869 4.57513 13.9677C4.57338 13.9277 4.57513 13.8876 4.57687 13.8475C4.57861 13.8319 4.58035 13.8179 4.58035 13.8022C4.57687 13.8545 4.58209 13.7883 4.58384 13.7778C4.59952 13.6907 4.62565 13.6071 4.65875 13.5235C4.70579 13.405 4.62739 13.2378 4.51938 13.1785C4.39743 13.1141 4.24934 13.128 4.15003 13.2256C4.12913 13.2465 4.10648 13.2674 4.08383 13.2866C4.07512 13.2953 4.06467 13.3022 4.05422 13.311C4.0577 13.3075 4.09428 13.2831 4.06641 13.3022C4.01589 13.3371 3.96536 13.3719 3.90962 13.3998C3.88871 13.412 3.86606 13.4225 3.84341 13.4329C3.79289 13.4573 3.83993 13.4346 3.84864 13.4312C3.83645 13.4346 3.82599 13.4399 3.81554 13.4434C3.76327 13.4625 3.70927 13.4782 3.65352 13.4887C3.62564 13.4939 3.59951 13.4991 3.57164 13.5043C3.63262 13.4939 3.57512 13.5026 3.54551 13.5043C3.48976 13.5078 3.43401 13.5078 3.37826 13.5043C3.3591 13.5026 3.27721 13.4904 3.35213 13.5043C3.32774 13.5009 3.30509 13.4956 3.2807 13.4921C3.22146 13.4799 3.16397 13.4625 3.10822 13.4434C3.09603 13.4399 3.08558 13.4347 3.07512 13.4312C3.07861 13.4329 3.1239 13.4538 3.09254 13.4381C3.06641 13.4259 3.04028 13.4137 3.01589 13.3998C2.96537 13.3719 2.91659 13.3406 2.86955 13.3075C2.85735 13.2988 2.82948 13.2709 2.87129 13.3092C2.86258 13.3005 2.85213 13.2935 2.84167 13.2848C2.81902 13.2657 2.79812 13.2448 2.77547 13.2239C2.75457 13.2029 2.7354 13.182 2.71624 13.1594C2.70753 13.1489 2.69707 13.1367 2.68836 13.1263C2.66746 13.1019 2.70404 13.1524 2.67617 13.1089C2.64307 13.0583 2.60997 13.0061 2.58383 12.9521C2.57687 12.9399 2.57164 12.9277 2.56641 12.9137C2.5908 12.9608 2.5699 12.9207 2.56467 12.9103C2.55248 12.8754 2.54028 12.8406 2.52983 12.8057C2.52286 12.7796 2.51589 12.7535 2.51066 12.7256C2.50718 12.7117 2.49498 12.628 2.49847 12.6577C2.50195 12.6942 2.49847 12.6489 2.49847 12.6437C2.49847 12.6298 2.49673 12.6158 2.49498 12.6036C2.49324 12.5671 2.49324 12.5305 2.49324 12.4956C2.49324 12.4817 2.49498 12.4678 2.49498 12.4556C2.49498 12.4556 2.50195 12.3737 2.49673 12.4155C2.49324 12.4521 2.49847 12.4068 2.49847 12.4016C2.50195 12.3789 2.50718 12.3563 2.5124 12.3354C2.52808 12.2692 2.54725 12.203 2.57338 12.1402C2.57164 12.1455 2.55422 12.1803 2.5699 12.1507L2.60126 12.088C2.61868 12.0549 2.63784 12.0235 2.65875 11.9922C2.66572 11.98 2.67617 11.9695 2.68314 11.9573C2.70579 11.9172 2.65701 11.9869 2.68662 11.9503C2.7145 11.9172 2.74237 11.8841 2.77373 11.8528C2.86432 11.7587 2.89568 11.5967 2.82077 11.4834C2.75283 11.3789 2.603 11.2918 2.47583 11.3441C2.42356 11.365 2.36956 11.3841 2.31555 11.3981C2.28942 11.405 2.26154 11.412 2.23541 11.4172C2.22322 11.419 2.21276 11.4207 2.20057 11.4242C2.1483 11.4329 2.21102 11.4225 2.21276 11.4225C2.21276 11.4259 2.06294 11.4294 2.05074 11.4294C2.02461 11.4294 1.99674 11.4259 1.9706 11.4259C1.96189 11.4259 1.94447 11.4259 1.93576 11.4225C1.98802 11.4468 1.96538 11.4277 1.9375 11.4225C1.88524 11.412 1.83297 11.4016 1.78245 11.3859C1.76154 11.3789 1.7389 11.3719 1.71799 11.365C1.70754 11.3615 1.66224 11.3441 1.70231 11.3597C1.74064 11.3737 1.6936 11.3563 1.68663 11.3528C1.63959 11.3301 1.59256 11.304 1.54726 11.2761C1.52461 11.2622 1.50371 11.2465 1.48106 11.2308C1.47583 11.2273 1.44621 11.2029 1.47583 11.2273C1.51068 11.2552 1.46015 11.2134 1.45318 11.2082C1.41486 11.1751 1.38001 11.1402 1.34691 11.1036C1.32775 11.0827 1.31207 11.0618 1.29465 11.0409C1.33646 11.0914 1.28594 11.027 1.27374 11.0078C1.24238 10.9608 1.21625 10.912 1.19186 10.8615C1.18664 10.851 1.18141 10.8388 1.17618 10.8284C1.15876 10.7883 1.18838 10.8737 1.17444 10.8232C1.16399 10.7883 1.15005 10.7535 1.1396 10.7186C1.12914 10.6838 1.12217 10.6489 1.11521 10.6124C1.11346 10.6054 1.10475 10.5427 1.10998 10.5775C1.11346 10.6089 1.10824 10.5583 1.10824 10.5566C1.10475 10.48 1.1065 10.4068 1.11172 10.3301C1.11346 10.2935 1.11172 10.3301 1.10998 10.3371C1.11346 10.3179 1.11695 10.297 1.12043 10.2779C1.1274 10.243 1.13611 10.2099 1.14657 10.1768C1.15528 10.1489 1.16747 10.1211 1.17444 10.0914C1.18838 10.0444 1.15528 10.128 1.17444 10.088C1.18141 10.0723 1.18838 10.0566 1.19709 10.0409C1.22845 9.9782 1.26677 9.9242 1.30336 9.86497C1.32775 9.82664 1.272 9.89981 1.30336 9.86497C1.31555 9.85277 1.32601 9.83883 1.33646 9.8249C1.35911 9.79876 1.3835 9.77438 1.40789 9.74998C1.43402 9.72559 1.46015 9.70294 1.48628 9.6803C1.51242 9.65765 1.48106 9.68552 1.47757 9.68726C1.49674 9.67507 1.51416 9.66113 1.53158 9.64894C1.59604 9.60713 1.66398 9.57229 1.73541 9.54093C1.85214 9.4904 1.91311 9.3127 1.87478 9.19598C1.83297 9.06706 1.71973 8.97473 1.58036 8.97299C1.55248 8.97299 1.52287 8.97124 1.49499 8.9695C1.46712 8.96776 1.40614 8.95731 1.46886 8.96776C1.41137 8.95731 1.35388 8.94511 1.29639 8.92769C1.27025 8.91898 1.24587 8.91027 1.21973 8.90156C1.16747 8.88414 1.26503 8.92595 1.19709 8.89111C1.14482 8.86672 1.09604 8.83884 1.04726 8.80748C1.02461 8.79354 1.00371 8.77612 0.981059 8.76219C0.953185 8.74302 0.996739 8.77264 0.998481 8.77438C0.988028 8.76393 0.975833 8.75522 0.963636 8.74476C0.923567 8.70992 0.88524 8.67333 0.850396 8.63327C0.838201 8.62107 0.782452 8.54441 0.826006 8.60713C0.813811 8.58797 0.799873 8.57055 0.785936 8.55138C0.754577 8.50434 0.726703 8.45382 0.700571 8.4033C0.665726 8.33536 0.709281 8.43292 0.690117 8.38065C0.681407 8.35452 0.670954 8.33013 0.663985 8.304C0.646563 8.24825 0.634368 8.19076 0.622173 8.13327C0.618689 8.11759 0.618689 8.07578 0.622173 8.14372C0.622173 8.13153 0.620431 8.11933 0.618689 8.10714C0.616947 8.07926 0.615204 8.05139 0.613463 8.02177C0.613463 7.99041 0.613463 7.95731 0.615205 7.92595C0.615205 7.91202 0.616947 7.89808 0.618689 7.88414C0.623916 7.79878 0.609978 7.9155 0.620431 7.86846C0.634369 7.80574 0.646564 7.74303 0.665728 7.68205C0.670955 7.66811 0.702312 7.58449 0.677923 7.64198C0.691861 7.60888 0.70754 7.57752 0.724963 7.54616C0.754579 7.49216 0.787682 7.43989 0.826008 7.38937C0.796392 7.43118 0.832977 7.3824 0.845172 7.36846C0.86782 7.34233 0.892211 7.3162 0.918343 7.29181C0.944476 7.26742 0.970607 7.24477 0.996739 7.22212C0.954927 7.25871 0.988028 7.22909 0.998481 7.22212C1.0159 7.20993 1.03507 7.19773 1.05249 7.18554C1.0821 7.16638 1.11346 7.14895 1.14482 7.13153C1.15702 7.12456 1.16921 7.11934 1.17967 7.11411C1.18663 7.11063 1.25284 7.08275 1.21625 7.09669C1.18315 7.10888 1.2267 7.0932 1.23019 7.0932C1.25109 7.08624 1.272 7.07927 1.29465 7.0723C1.32949 7.06185 1.36433 7.05313 1.39917 7.04442C1.41311 7.04094 1.42531 7.0392 1.43924 7.03571C1.52287 7.01829 1.4044 7.03571 1.45318 7.03397C1.49499 7.03223 1.5368 7.027 1.57861 7.027C1.70754 7.02526 1.84342 6.93467 1.87304 6.80401C1.90091 6.6838 1.8591 6.51307 1.73367 6.45906C1.6814 6.43642 1.63088 6.41202 1.58036 6.38241C1.55945 6.37022 1.53855 6.35802 1.51938 6.34408C1.50022 6.33189 1.4375 6.27788 1.48454 6.32144C1.44272 6.28485 1.40265 6.25001 1.36433 6.20994C1.34516 6.19077 1.32774 6.16987 1.31032 6.14896C1.30335 6.14025 1.29638 6.13154 1.28767 6.12283C1.30161 6.14025 1.31381 6.15767 1.2929 6.1298C1.26328 6.0845 1.23367 6.04095 1.20753 5.99217C1.19534 5.96952 1.18489 5.94339 1.17269 5.92074C1.15527 5.89286 1.17966 5.93816 1.1814 5.9399C1.17443 5.92248 1.16746 5.90332 1.16049 5.8859C1.14482 5.83886 1.13088 5.79008 1.11868 5.7413C1.11346 5.71516 1.10997 5.68729 1.103 5.66116C1.09429 5.62631 1.10649 5.68555 1.10649 5.68555C1.10126 5.67161 1.103 5.64374 1.10126 5.62806C1.09778 5.57754 1.09778 5.52701 1.09952 5.47649C1.09952 5.46604 1.10649 5.38067 1.103 5.42248C1.09952 5.46604 1.10475 5.41551 1.10649 5.40506C1.10997 5.38938 1.11171 5.3737 1.1152 5.35802C1.12739 5.30227 1.14307 5.24827 1.16224 5.19426C1.16572 5.18206 1.17095 5.17161 1.17443 5.15942C1.17095 5.17161 1.1483 5.21342 1.17443 5.15942L1.21625 5.07579C1.23192 5.04966 1.2476 5.02179 1.26328 4.9974C1.272 4.98346 1.28245 4.96778 1.2929 4.95384C1.29464 4.95036 1.32252 4.91551 1.29987 4.94339C1.27896 4.97126 1.3051 4.93642 1.30858 4.93468C1.32078 4.92248 1.33123 4.90855 1.34168 4.89635C1.36433 4.87196 1.38872 4.84757 1.41311 4.82318C1.43228 4.80576 1.45144 4.79008 1.4706 4.77266C1.51416 4.73607 1.47757 4.76743 1.46886 4.7744L1.50022 4.75349C1.55248 4.71865 1.60649 4.68555 1.66398 4.65942C1.67618 4.65419 1.68663 4.64897 1.69883 4.64374C1.72322 4.63154 1.66398 4.65419 1.71799 4.63677C1.75632 4.62458 1.79464 4.61064 1.83472 4.60019C1.87479 4.58974 1.91485 4.58102 1.95492 4.5758C1.90614 4.58277 1.99673 4.57405 2.01067 4.57231C2.05248 4.57057 2.09255 4.57057 2.13436 4.57231C2.15527 4.57405 2.17618 4.5758 2.19708 4.57754C2.24935 4.58277 2.15702 4.57057 2.20928 4.57928C2.29987 4.5967 2.38524 4.62109 2.4706 4.65419C2.59081 4.70123 2.75632 4.62458 2.81554 4.51482C2.88 4.39287 2.86607 4.24479 2.76851 4.14548C2.7476 4.12457 2.72669 4.10192 2.70753 4.07928C2.69882 4.07057 2.69185 4.06011 2.68314 4.04966C2.68662 4.05314 2.71101 4.08973 2.69185 4.06185C2.657 4.01133 2.62216 3.96081 2.59429 3.90506C2.58209 3.88415 2.57164 3.86151 2.56119 3.83886C2.5368 3.78834 2.55944 3.83537 2.56293 3.84409C2.55944 3.83189 2.55422 3.82144 2.55073 3.81098C2.53157 3.75872 2.51589 3.70471 2.50544 3.64896C2.50021 3.62109 2.49498 3.59496 2.48976 3.56708C2.50021 3.62806 2.4915 3.57057 2.48976 3.54095C2.48627 3.4852 2.48627 3.42945 2.48976 3.3737C2.4915 3.35454 2.50369 3.27266 2.48976 3.34757C2.49324 3.32318 2.49847 3.30053 2.50195 3.27614C2.51415 3.21691 2.53157 3.15942 2.55073 3.10367C2.55422 3.09147 2.55944 3.08102 2.56293 3.07057C2.56118 3.07405 2.54028 3.11935 2.55596 3.08799C2.56815 3.06186 2.58035 3.03572 2.59428 3.01133C2.62216 2.96081 2.65352 2.91203 2.68662 2.86499C2.69533 2.8528 2.7232 2.82492 2.68487 2.86673C2.69359 2.85802 2.70055 2.84757 2.70926 2.83712C2.72843 2.81447 2.74933 2.79356 2.77024 2.77092C2.79115 2.75001 2.81205 2.73085 2.8347 2.71168C2.84515 2.70297 2.85735 2.69252 2.8678 2.68381C2.89219 2.6629 2.84167 2.69949 2.88522 2.67161C2.93575 2.63851 2.98801 2.60541 3.04202 2.57928C3.05421 2.57231 3.06641 2.56708 3.08035 2.56186C3.03331 2.58625 3.07338 2.56534 3.08383 2.56012C3.11867 2.54792 3.15352 2.53573 3.18836 2.52527C3.21449 2.5183 3.24062 2.51133 3.2685 2.50611C3.28243 2.50262 3.36606 2.49043 3.33644 2.49391C3.29986 2.4974 3.34515 2.49391 3.35038 2.49391C3.36431 2.49391 3.37825 2.49217 3.39045 2.49043C3.42703 2.48869 3.46362 2.48869 3.49846 2.48869C3.5124 2.48869 3.52633 2.49043 3.53853 2.49043C3.53853 2.49043 3.62041 2.4974 3.5786 2.49217C3.54201 2.48869 3.58731 2.49391 3.59253 2.49391C3.61518 2.4974 3.63783 2.50262 3.65874 2.50785C3.72494 2.52353 3.79114 2.54269 3.85386 2.56883C3.84863 2.56708 3.81379 2.54966 3.8434 2.56534L3.90612 2.5967C3.93923 2.61412 3.97058 2.63329 4.00194 2.65419C4.01414 2.66116 4.02459 2.67161 4.03679 2.67858C4.07685 2.70123 4.00717 2.65245 4.04375 2.68207C4.07686 2.70994 4.10996 2.73782 4.14131 2.76918C4.23539 2.85977 4.39741 2.89113 4.51066 2.81622C4.61519 2.74827 4.7023 2.59845 4.65003 2.47127C4.62913 2.41901 4.60996 2.365 4.59603 2.311C4.58906 2.28486 4.58209 2.25699 4.57686 2.22911C4.57512 2.21692 4.57338 2.20647 4.56989 2.19427C4.56118 2.14201 4.57164 2.20472 4.57164 2.20646C4.56815 2.20646 4.56467 2.05664 4.56467 2.04445C4.56467 2.01831 4.56815 1.99044 4.56815 1.96431C4.56815 1.9556 4.56815 1.93817 4.57164 1.92946C4.54725 1.98173 4.56641 1.95908 4.57164 1.9312C4.58209 1.87894 4.59254 1.82668 4.60822 1.77615C4.61519 1.7535 4.62216 1.7326 4.62913 1.71169C4.63261 1.70124 4.65003 1.65594 4.63435 1.69601C4.62041 1.73434 4.63784 1.6873 4.64132 1.68033C4.66397 1.6333 4.6901 1.58626 4.71797 1.54096C4.73191 1.51831 4.74759 1.49741 4.76327 1.47476C4.76676 1.46953 4.79115 1.43992 4.76675 1.46953C4.73888 1.50438 4.78069 1.45386 4.78592 1.44689C4.81902 1.40856 4.85386 1.37372 4.89045 1.34062C4.91135 1.32319 4.93226 1.30577 4.95317 1.28835C4.90264 1.33016 4.9671 1.27964 4.98627 1.26745C5.03331 1.23609 5.08209 1.20996 5.13261 1.18557C5.14306 1.18034 5.15526 1.17511 5.16571 1.16989C5.20578 1.15246 5.12042 1.18208 5.17094 1.16814C5.20578 1.15769 5.24063 1.14375 5.27547 1.1333C5.31031 1.12284 5.34515 1.11588 5.38174 1.10891C5.38871 1.10717 5.45142 1.09846 5.41658 1.10194C5.38522 1.10543 5.43575 1.1002 5.43749 1.1002C5.51414 1.09671 5.58731 1.09846 5.66397 1.10368C5.70055 1.10543 5.66397 1.10368 5.657 1.10194C5.67616 1.10543 5.69533 1.10891 5.71623 1.11239C5.75108 1.11936 5.78418 1.12807 5.81728 1.13853C5.84515 1.14724 5.87303 1.15943 5.90265 1.1664C5.94969 1.18034 5.86606 1.14724 5.90613 1.1664C5.92181 1.17337 5.93749 1.18034 5.95317 1.18905C6.01589 1.22041 6.0699 1.25873 6.12913 1.29532C6.16745 1.31971 6.09428 1.26396 6.12913 1.29532C6.14132 1.30751 6.15526 1.31797 6.1692 1.32842C6.19533 1.35107 6.21972 1.37546 6.24411 1.39985C6.2685 1.42598 6.29115 1.45211 6.3138 1.47825C6.33644 1.50438 6.30857 1.47302 6.30683 1.46953C6.31902 1.4887 6.33296 1.50612 6.34515 1.52354C6.38696 1.588 6.42181 1.65594 6.45317 1.72737C6.50369 1.8441 6.68139 1.90507 6.79811 1.86674C6.92703 1.82493 7.01936 1.71169 7.0211 1.57232C7.0211 1.54445 7.02285 1.51483 7.02459 1.48695C7.02633 1.45908 7.03678 1.3981 7.02633 1.46082C7.03678 1.40333 7.04898 1.34584 7.0664 1.28835C7.07511 1.26221 7.08382 1.23608 7.09253 1.21169C7.10995 1.15943 7.06814 1.25699 7.10299 1.18905C7.12738 1.13678 7.15525 1.088 7.18661 1.03922C7.20055 1.01657 7.21797 0.995667 7.23191 0.97302C7.25107 0.945146 7.22145 0.9887 7.21971 0.990442C7.23016 0.979989 7.23888 0.967794 7.24933 0.955597C7.28417 0.915528 7.32076 0.877201 7.36083 0.842357C7.37302 0.830162 7.44968 0.774413 7.38696 0.817967C7.40612 0.805772 7.42354 0.791834 7.44271 0.777897C7.48975 0.746538 7.54027 0.718663 7.59079 0.692531C7.65873 0.657687 7.56117 0.701242 7.61344 0.682078C7.63957 0.673367 7.66396 0.662915 7.69009 0.654204C7.74584 0.636782 7.80333 0.624587 7.86082 0.612392C7.8765 0.608908 7.91831 0.608908 7.85037 0.612392C7.86256 0.612392 7.87476 0.61065 7.88695 0.608908C7.91483 0.607166 7.9427 0.605423 7.97232 0.603682C8.00368 0.603682 8.03678 0.603682 8.06814 0.605424C8.08208 0.605424 8.09601 0.607166 8.10995 0.608908C8.19532 0.614134 8.07859 0.600197 8.12563 0.61065C8.18835 0.624588 8.25106 0.636783 8.31204 0.655947C8.32598 0.661174 8.4096 0.692531 8.35211 0.668142C8.38521 0.682079 8.41657 0.697759 8.44793 0.715182C8.50193 0.744798 8.5542 0.777901 8.60472 0.816227C8.56291 0.786611 8.61169 0.823196 8.62563 0.835391C8.65176 0.858039 8.67789 0.88243 8.70228 0.908562C8.72667 0.934695 8.74932 0.960826 8.77197 0.986958C8.73538 0.945146 8.765 0.978247 8.77197 0.9887C8.78416 1.00612 8.79636 1.02528 8.80855 1.04271C8.82772 1.07232 8.84514 1.10368 8.86256 1.13504C8.86953 1.14723 8.87475 1.15943 8.87998 1.16988C8.88347 1.17685 8.91134 1.24306 8.8974 1.20647C8.88521 1.17337 8.90089 1.21692 8.90089 1.22041C8.90786 1.24131 8.91482 1.26222 8.92179 1.28486C8.93225 1.31971 8.94096 1.35455 8.94967 1.38939C8.95315 1.40333 8.95489 1.41552 8.95838 1.42946C8.9758 1.51308 8.95838 1.39462 8.96012 1.4434C8.96186 1.48521 8.96709 1.52702 8.96709 1.56883C8.96883 1.69775 9.05942 1.83364 9.19008 1.86326C9.31029 1.89113 9.48102 1.84932 9.53503 1.72389C9.55768 1.67162 9.58207 1.61936 9.61168 1.57058C9.62562 1.54619 9.6413 1.52354 9.65698 1.49915C9.67091 1.47824 9.71273 1.4312 9.67266 1.47476C9.70924 1.43295 9.74409 1.39288 9.78415 1.35455C9.80332 1.33539 9.82422 1.31797 9.84513 1.30054C9.85384 1.29357 9.86255 1.28661 9.87126 1.2779C9.81726 1.32145 9.86081 1.28486 9.87475 1.2779C9.92004 1.24828 9.96534 1.2204 10.0124 1.19427C10.0333 1.18382 10.0542 1.17511 10.0751 1.16466C10.1134 1.14375 10.0246 1.18033 10.0664 1.16814C10.0803 1.16291 10.096 1.15769 10.1099 1.15246C10.1605 1.13504 10.2127 1.11936 10.265 1.10891C10.2911 1.10368 10.319 1.09497 10.3451 1.09497C10.3434 1.09497 10.2859 1.09845 10.3207 1.09845C10.3399 1.09845 10.3591 1.09497 10.3782 1.09323C10.4288 1.08974 10.4793 1.08974 10.5298 1.09323C10.5594 1.09497 10.6152 1.10368 10.5542 1.09323C10.5855 1.09845 10.6169 1.10368 10.6483 1.11065C10.704 1.12284 10.758 1.14027 10.8103 1.15943C10.8155 1.16117 10.8538 1.17511 10.8207 1.16291C10.7842 1.14897 10.8364 1.16988 10.8451 1.17511C10.873 1.18904 10.9009 1.20298 10.927 1.21866C10.9531 1.23434 10.9793 1.25002 11.0054 1.26744C11.0228 1.27789 11.0803 1.32667 11.0385 1.28835C11.0873 1.33016 11.1343 1.37197 11.1779 1.42075C11.197 1.4434 11.2179 1.4643 11.2354 1.48869C11.2005 1.44339 11.2423 1.50263 11.2545 1.52005C11.2859 1.56883 11.3155 1.6211 11.3399 1.67336C11.3434 1.68033 11.3625 1.72911 11.3504 1.69601C11.3382 1.66465 11.3591 1.7204 11.3608 1.72737C11.373 1.76395 11.3852 1.80228 11.3939 1.84061C11.3991 1.85977 11.4026 1.87893 11.4061 1.8981C11.4078 1.90332 11.4166 1.96082 11.4131 1.9312C11.4078 1.89462 11.4148 1.95733 11.4166 1.9643C11.4183 1.98347 11.42 2.00437 11.42 2.02354C11.4218 2.06361 11.42 2.10368 11.4183 2.14374C11.4166 2.15942 11.4148 2.17336 11.4148 2.18904C11.4183 2.13678 11.4131 2.20298 11.4113 2.21343C11.3957 2.30054 11.3695 2.38416 11.3364 2.46779C11.2894 2.58626 11.366 2.7535 11.4758 2.81273C11.5977 2.87719 11.7458 2.86325 11.8451 2.76569C11.866 2.74478 11.8887 2.72388 11.9113 2.70471C11.92 2.696 11.9305 2.68903 11.941 2.68032C11.9375 2.68381 11.9009 2.7082 11.9288 2.68903C11.9793 2.65419 12.0298 2.61935 12.0856 2.58973C12.1065 2.57754 12.1291 2.56708 12.1518 2.55663C12.2023 2.53224 12.1552 2.55489 12.1465 2.55837C12.1587 2.55489 12.1692 2.54966 12.1796 2.54618C12.2319 2.52701 12.2859 2.51133 12.3416 2.50088C12.3695 2.49565 12.3957 2.49043 12.4235 2.4852C12.3626 2.49565 12.42 2.48694 12.4497 2.4852C12.5054 2.48172 12.5612 2.48172 12.6169 2.4852C12.6361 2.48694 12.718 2.49914 12.643 2.4852C12.6674 2.48868 12.6901 2.49391 12.7145 2.4974C12.7737 2.50959 12.8312 2.52701 12.8869 2.54617C12.8991 2.54966 12.9096 2.55488 12.92 2.55837C12.9166 2.55663 12.8713 2.53572 12.9026 2.5514C12.9288 2.5636 12.9549 2.57579 12.9793 2.58973C13.0298 2.6176 13.0786 2.64896 13.1256 2.68206C13.1378 2.69077 13.1657 2.71864 13.1239 2.68032C13.1326 2.68903 13.143 2.696 13.1535 2.70471C13.1761 2.72387 13.197 2.74478 13.2197 2.76568C13.2406 2.78659 13.2598 2.8075 13.2789 2.83014C13.2876 2.8406 13.2981 2.85279 13.3068 2.86325C13.3277 2.88764 13.2911 2.83711 13.319 2.88067C13.3521 2.93119 13.3852 2.98346 13.4113 3.03746C13.4183 3.04966 13.4235 3.06185 13.4288 3.07579C13.4044 3.02875 13.4253 3.06882 13.4305 3.07927C13.4427 3.11412 13.4549 3.14896 13.4653 3.1838C13.4723 3.20993 13.4793 3.23606 13.4845 3.26394C13.488 3.27788 13.5002 3.3615 13.4967 3.33188C13.4932 3.2953 13.4967 3.34059 13.4967 3.34582C13.4967 3.35976 13.4984 3.37369 13.5002 3.38589C13.5019 3.42247 13.5019 3.45906 13.5019 3.4939C13.5019 3.50784 13.5002 3.52178 13.5002 3.53397C13.5002 3.53397 13.4932 3.61585 13.4984 3.57404C13.5019 3.53746 13.4967 3.58275 13.4967 3.58798C13.4932 3.61063 13.488 3.63327 13.4828 3.65418C13.4671 3.72038 13.4479 3.78658 13.4218 3.8493C13.4235 3.84407 13.4409 3.80923 13.4253 3.83885C13.4148 3.85975 13.4044 3.88066 13.3939 3.90157C13.3765 3.93467 13.3573 3.96602 13.3364 3.99738C13.3295 4.00958 13.319 4.02003 13.312 4.03223C13.2894 4.0723 13.3382 4.00261 13.3085 4.0392C13.2807 4.0723 13.2528 4.1054 13.2214 4.13676C13.1308 4.23083 13.0995 4.39286 13.1744 4.5061C13.2423 4.61063 13.3922 4.69774 13.5193 4.64547C13.5716 4.62457 13.6256 4.60541 13.6796 4.59147C13.7057 4.5845 13.7336 4.57753 13.7615 4.5723C13.7737 4.57056 13.7841 4.56882 13.7963 4.56534C13.8486 4.55663 13.7859 4.56708 13.7841 4.56708C13.7841 4.56359 13.934 4.56011 13.9462 4.56011C13.9723 4.56011 14.0002 4.56359 14.0263 4.56359C14.035 4.56359 14.0524 4.56359 14.0611 4.56708C14.0089 4.54269 14.0315 4.56185 14.0594 4.56708C14.1117 4.57753 14.1639 4.58798 14.2145 4.60366C14.2371 4.61063 14.258 4.6176 14.2789 4.62457C14.2894 4.62805 14.3347 4.64547 14.2946 4.62979C14.2563 4.61586 14.3033 4.63328 14.3103 4.63676C14.3573 4.65941 14.4044 4.68554 14.4496 4.71342C14.4723 4.72735 14.4932 4.74303 14.5159 4.75871C14.5211 4.7622 14.5507 4.78659 14.5211 4.7622C14.4862 4.73432 14.5368 4.77614 14.5437 4.78136C14.5821 4.81446 14.6169 4.84931 14.65 4.88589L14.7023 4.94861C14.6604 4.89809 14.711 4.96255 14.7232 4.98171C14.7545 5.02875 14.7807 5.07753 14.805 5.12805C14.8103 5.13851 14.8155 5.1507 14.8207 5.16116C14.8381 5.20122 14.8085 5.11586 14.8225 5.16638C14.8329 5.20123 14.8469 5.23607 14.8573 5.27091C14.8678 5.30575 14.8747 5.3406 14.8817 5.37718C14.8834 5.38415 14.8922 5.44687 14.8887 5.41202C14.8852 5.38067 14.8904 5.43119 14.8904 5.43293C14.8939 5.50958 14.8922 5.58276 14.8869 5.65941C14.8852 5.696 14.8869 5.65941 14.8887 5.65244C14.8852 5.67161 14.8817 5.69077 14.8782 5.71168C14.8712 5.74652 14.8625 5.77962 14.8521 5.81272C14.8434 5.8406 14.8312 5.86847 14.8242 5.89809C14.8103 5.94513 14.8434 5.8615 14.8242 5.90157C14.8172 5.91725 14.8103 5.93293 14.8016 5.94861C14.7702 6.01133 14.7319 6.06534 14.6953 6.12457C14.6709 6.1629 14.7267 6.08972 14.6953 6.12457C14.6831 6.13676 14.6726 6.1507 14.6622 6.16464C14.6395 6.19077 14.6152 6.21516 14.5908 6.23955C14.5646 6.26394 14.5385 6.28659 14.5124 6.30924C14.4862 6.33189 14.5176 6.30401 14.5211 6.30227C14.5019 6.31446 14.4845 6.3284 14.4671 6.3406C14.4026 6.38241 14.3347 6.41725 14.2632 6.44861C14.1465 6.49913 14.0855 6.67683 14.1239 6.79355C14.1657 6.92247 14.2789 7.01481 14.4183 7.01655C14.4584 7.01655 14.4984 7.02003 14.5385 7.02352C14.6152 7.02874 14.4967 7.01481 14.5402 7.02352C14.5594 7.027 14.5786 7.03049 14.5977 7.03397C14.6361 7.04268 14.6744 7.05139 14.711 7.06359C14.7301 7.06881 14.7476 7.07578 14.7667 7.08275C14.7998 7.09495 14.805 7.09843 14.7685 7.08275C14.8382 7.11411 14.9061 7.15069 14.9688 7.19251C14.9845 7.20296 15.0002 7.21515 15.0159 7.22561C15.0507 7.24826 14.9618 7.17857 15.0176 7.22735C15.0455 7.25348 15.0751 7.27787 15.1012 7.304C15.1274 7.33014 15.1535 7.35975 15.1779 7.38763C15.2023 7.41376 15.1848 7.39808 15.1726 7.37892C15.1866 7.39808 15.1988 7.4155 15.2127 7.43466C15.2336 7.46602 15.2528 7.49912 15.2719 7.53223C15.2789 7.54616 15.2859 7.5601 15.2929 7.57229C15.2946 7.57404 15.3277 7.64024 15.3068 7.59843C15.2876 7.55836 15.3138 7.61759 15.3172 7.6263C15.3242 7.64372 15.3294 7.66289 15.3364 7.68205C15.3486 7.71863 15.3591 7.75696 15.366 7.79529C15.3695 7.81445 15.373 7.83362 15.3782 7.85278C15.3904 7.91202 15.3765 7.8162 15.3782 7.85452C15.38 7.89982 15.3852 7.94338 15.3852 7.98693C15.3869 8.1472 15.5246 8.29877 15.6901 8.2918C15.8573 8.29529 16.0002 8.16811 15.9984 7.99738L15.9984 7.99744Z" fill="#231F20"/>
</svg>
