<svg xmlns="http://www.w3.org/2000/svg" width="66" height="66" viewBox="0 0 66 66">
    <g fill="none" fill-rule="evenodd">
        <rect width="66" height="66" fill="#F7F7F7" rx="33"/>
        <path fill="#FED100" d="M50.067 42.695H17v2.042h33.067z"/>
        <g fill="#000">
            <path fill-rule="nonzero" d="M50.205 20h-33.41a.795.795 0 0 0-.795.795V44.66c0 .44.356.796.795.796h33.41c.439 0 .795-.356.795-.796V20.795a.795.795 0 0 0-.795-.795zm-.796 21.94l-9.854-9.854-1.125 1.125 10.653 10.653H17.917L28.57 33.21l-1.125-1.125-9.854 9.853V21.591h31.818v20.348z"/>
            <path d="M47.801 21.59L33.5 35.893 19.199 21.591H17.59v.642L32.938 37.58a.795.795 0 0 0 1.124 0L49.41 22.233v-.642h-1.608z"/>
        </g>
    </g>
</svg>
