<svg width="159" height="32" viewBox="0 0 159 32" fill="none" xmlns="http://www.w3.org/2000/svg">
<path d="M31.8954 1.46246C28.1129 -0.871046 23.1332 -0.315086 18.692 2.44034C14.2646 -0.315086 9.28185 -0.871046 5.50393 1.46246C-0.472259 5.15008 -1.19884 14.6471 3.88261 22.6758C7.62814 28.5948 13.4855 32.0631 18.6997 31.9991C23.9138 32.0631 29.7712 28.5948 33.5167 22.6758C38.592 14.6471 37.8716 5.15008 31.8954 1.46246ZM6.63006 20.9805C5.58228 19.3404 4.79173 17.5533 4.28524 15.6798C3.83525 14.0535 3.6632 12.3645 3.77617 10.6823C4.00294 7.71511 5.22625 5.40445 7.21934 4.17524C9.21244 2.94604 11.8473 2.8714 14.6533 3.97114C15.0745 4.13716 15.491 4.32908 15.9044 4.5408C14.3451 5.94468 12.9892 7.55408 11.875 9.32358C8.78975 14.1978 7.84874 19.6218 8.9255 23.9461C8.06693 23.0316 7.29833 22.0386 6.63006 20.9805ZM33.1156 15.6783C32.6085 17.5516 31.818 19.3386 30.7708 20.9789C30.102 22.0386 29.3334 23.0335 28.4754 23.9507C29.438 20.0742 28.7839 15.3249 26.4237 10.8711C26.3474 10.7228 26.2111 10.6133 26.0485 10.5697C25.886 10.5262 25.7123 10.5527 25.5706 10.6427L18.2122 15.1817C18.0766 15.2652 17.9803 15.3986 17.9444 15.5523C17.9085 15.706 17.9361 15.8675 18.0209 16.0012L19.1008 17.7056C19.185 17.8394 19.3198 17.9345 19.4752 17.9699C19.6307 18.0053 19.794 17.9782 19.9292 17.8945L24.699 14.9517C24.8533 15.4087 25.0075 15.8656 25.1232 16.3226C25.5731 17.9468 25.7457 19.6338 25.6338 21.314C25.4071 24.2797 24.1838 26.5903 22.1907 27.8211C21.1626 28.4417 19.9847 28.7783 18.7799 28.7959C18.7537 28.7959 18.7259 28.7959 18.6997 28.7959H18.6272C17.4223 28.7787 16.2443 28.442 15.2164 27.8211C13.2218 26.5903 11.9984 24.2797 11.7717 21.314C11.6594 19.6318 11.8314 17.9429 12.2807 16.3165C13.3146 12.5537 15.4517 9.17648 18.4235 6.60928C19.7051 5.49856 21.1648 4.60599 22.7429 3.96809C25.5413 2.86836 28.1807 2.94147 30.1754 4.1722C32.17 5.40292 33.3918 7.71206 33.6185 10.6792C33.733 12.3616 33.563 14.051 33.1156 15.6783ZM71.0985 12.1338C67.2296 12.1338 64.1027 15.1162 64.1027 18.9105C64.1027 22.6788 67.2296 25.6124 71.0985 25.6124C74.9937 25.6124 78.1206 22.6834 78.1206 18.9105C78.1206 15.1178 74.9983 12.1354 71.0985 12.1354V12.1338ZM71.0985 22.0695C69.3152 22.0695 67.9577 20.6454 67.9577 18.8846C67.9577 17.1238 69.3152 15.6783 71.0985 15.6783C72.908 15.6783 74.2656 17.1283 74.2656 18.8891C74.2656 20.6499 72.908 22.0756 71.0985 22.0756V22.0695ZM86.8443 6.92904H79.725C79.5696 6.92621 79.4197 6.98597 79.3099 7.09464C79.2001 7.20331 79.14 7.35147 79.1434 7.50491V24.6422C79.1322 24.8008 79.1886 24.9568 79.2991 25.0725C79.4095 25.1882 79.5639 25.2531 79.725 25.2515H86.8443C92.5412 25.2515 96.4996 21.5105 96.4996 16.0682C96.4996 10.5924 92.5412 6.92904 86.8443 6.92904ZM87.0124 21.6324H83.1172V10.5391H87.0124C90.1656 10.5391 92.3391 12.868 92.3391 16.0606C92.3391 19.1999 90.1656 21.6324 87.0124 21.6324ZM110.67 12.5025H107.994C107.687 12.5264 107.448 12.7745 107.438 13.0782V13.8627C106.829 12.868 105.452 12.1354 103.736 12.1354C100.398 12.1354 97.271 14.7248 97.271 18.8602C97.271 22.9728 100.37 25.6094 103.71 25.6094C105.432 25.6094 106.837 24.8783 107.446 23.8836V24.694C107.448 24.9964 107.695 25.2413 108.002 25.2438H110.678C110.827 25.2472 110.97 25.1904 111.076 25.0865C111.181 24.9826 111.238 24.8408 111.235 24.694V13.0782C111.24 12.9273 111.182 12.781 111.076 12.6726C110.969 12.5642 110.823 12.5028 110.67 12.5025ZM104.444 22.0985C102.672 22.0985 101.34 20.7535 101.34 18.8876C101.34 17.0217 102.672 15.6783 104.444 15.6783C106.217 15.6783 107.548 17.0202 107.548 18.8861C107.548 20.752 106.218 22.097 104.444 22.097V22.0985ZM125.694 6.92915H123.018C122.866 6.92464 122.719 6.98034 122.61 7.08372C122.501 7.18711 122.438 7.32954 122.436 7.47901V13.8109C121.819 12.868 120.421 12.1354 118.674 12.1354C115.36 12.1354 112.287 14.7248 112.287 18.8602C112.287 22.9728 115.386 25.6094 118.726 25.6094C120.448 25.6094 121.746 24.8783 122.462 23.8836V24.694C122.463 24.9967 122.711 25.2422 123.018 25.2438H125.694C125.843 25.2476 125.987 25.1909 126.092 25.087C126.197 24.983 126.255 24.8409 126.251 24.694V7.48206C126.256 7.33457 126.199 7.19168 126.093 7.08705C125.988 6.98242 125.844 6.9253 125.694 6.92915ZM119.468 22.1305C117.703 22.1305 116.383 20.7718 116.383 18.8861C116.383 17.0004 117.708 15.6417 119.468 15.6417C121.228 15.6417 122.553 17.0004 122.553 18.8861C122.553 20.7718 121.234 22.1305 119.468 22.1305ZM140.715 6.92915H138.043C137.891 6.92464 137.744 6.98029 137.635 7.08364C137.525 7.18698 137.462 7.3294 137.46 7.47901V13.8109C136.85 12.868 135.445 12.1354 133.697 12.1354C130.384 12.1354 127.311 14.7248 127.311 18.8602C127.311 22.9728 130.411 25.6094 133.75 25.6094C135.473 25.6094 136.77 24.8783 137.486 23.8836V24.694C137.488 24.997 137.736 25.2422 138.043 25.2438H140.715C140.864 25.2477 141.007 25.1909 141.112 25.0869C141.217 24.9829 141.274 24.8408 141.27 24.694V7.48206C141.275 7.33472 141.219 7.19181 141.113 7.08713C141.008 6.98244 140.864 6.92528 140.715 6.92915ZM134.489 22.1305C132.722 22.1305 131.403 20.7718 131.403 18.8861C131.403 17.0004 132.729 15.6417 134.489 15.6417C136.249 15.6417 137.574 17.0004 137.574 18.8861C137.574 20.7718 136.258 22.1305 134.493 22.1305H134.489ZM155.37 13.3935L151.376 26.9178C150.605 29.3244 148.885 30.7638 146.208 30.7638C144.991 30.7638 143.883 30.5186 143.015 30.0281C142.509 29.7433 142.089 29.4828 142.089 29.0655C142.089 28.8065 142.174 28.6725 142.328 28.4303L143.121 27.2575C143.345 26.93 143.51 26.8234 143.751 26.8234C143.941 26.828 144.126 26.8914 144.278 27.0046C144.777 27.323 145.239 27.5971 145.944 27.5971C146.768 27.5971 147.398 27.3367 147.737 26.3679L148.079 25.2454H146.463C146.065 25.2454 145.846 25.0108 145.747 24.6955L142.173 13.3935C142.04 12.9487 142.162 12.504 142.824 12.504H145.639C145.983 12.504 146.224 12.6197 146.375 13.1056L149.014 22.2066L151.482 13.1056C151.561 12.7919 151.774 12.504 152.198 12.504H154.869C155.395 12.5025 155.553 12.868 155.37 13.3935ZM63.0938 17.4162V24.6407C63.0963 24.7998 63.0334 24.9531 62.9194 25.0656C62.8055 25.1781 62.6502 25.2402 62.4891 25.2377H60.28C60.1187 25.2407 59.9632 25.1787 59.8491 25.0661C59.7351 24.9535 59.6723 24.7999 59.6753 24.6407V22.7443C58.273 24.4929 55.8341 25.5942 53.0759 25.5942C47.8957 25.5942 43.8478 21.7466 43.8478 16.2693C43.8478 10.5772 48.2181 6.65345 53.7392 6.65345C57.8149 6.65345 61.0729 8.38378 62.5199 11.8642C62.5604 11.9562 62.5829 12.0549 62.5862 12.1552C62.5862 12.3197 62.4767 12.4446 62.1234 12.5649L59.5442 13.5458C59.3886 13.6095 59.2142 13.6123 59.0567 13.5534C58.9186 13.4729 58.8104 13.3506 58.7481 13.2046C57.8226 11.4667 56.175 10.2862 53.6389 10.2862C50.35 10.2862 47.9944 12.8223 47.9944 16.1109C47.9944 19.2989 49.9998 21.9203 53.733 21.9203C55.6968 21.9203 57.2626 21.0064 57.9923 20.0026H55.6629C55.5017 20.0051 55.3464 19.943 55.2325 19.8305C55.1185 19.7179 55.0556 19.5646 55.0582 19.4055V17.4421C55.0556 17.283 55.1185 17.1297 55.2325 17.0172C55.3464 16.9046 55.5017 16.8425 55.6629 16.845H62.4891C62.6472 16.8371 62.8017 16.8938 62.9161 17.0019C63.0306 17.11 63.0948 17.2599 63.0938 17.4162ZM155.442 9.82775V9.65259C155.442 9.6403 155.447 9.62838 155.455 9.61908C155.464 9.61128 155.475 9.60695 155.487 9.60689H156.615C156.627 9.60649 156.638 9.61088 156.647 9.61908C156.655 9.62838 156.66 9.6403 156.66 9.65259V9.82775C156.659 9.83954 156.655 9.8509 156.647 9.85974C156.638 9.86794 156.627 9.87233 156.615 9.87193H156.203V10.9701C156.202 10.995 156.182 11.015 156.157 11.0158H155.944C155.932 11.0158 155.921 11.0108 155.913 11.0021C155.904 10.9938 155.899 10.9822 155.899 10.9701V9.87193H155.487C155.475 9.87285 155.463 9.8685 155.454 9.86C155.446 9.85151 155.441 9.83973 155.442 9.82775ZM157.414 9.6465L157.722 10.3517L158.031 9.6465C158.036 9.634 158.044 9.62332 158.056 9.61603C158.068 9.60947 158.083 9.60632 158.097 9.60689H158.455C158.467 9.60602 158.479 9.61017 158.487 9.61832C158.496 9.62646 158.5 9.63782 158.5 9.64954V10.9717C158.501 10.9834 158.497 10.9949 158.488 11.0033C158.48 11.0117 158.469 11.0163 158.457 11.0158H158.256C158.244 11.0162 158.232 11.0118 158.224 11.0036C158.215 10.9954 158.21 10.9836 158.211 10.9717V9.97398L157.88 10.699C157.875 10.7127 157.866 10.7248 157.855 10.734C157.842 10.741 157.828 10.7442 157.813 10.7432H157.65C157.636 10.7439 157.622 10.7408 157.61 10.734C157.598 10.7253 157.589 10.713 157.585 10.699L157.255 9.97398V10.9717C157.255 10.9834 157.251 10.9948 157.243 11.0036C157.234 11.0111 157.223 11.0154 157.212 11.0158H157.007C156.996 11.0159 156.985 11.0115 156.977 11.0036C156.968 10.9954 156.964 10.9836 156.965 10.9717V9.64954C156.964 9.63782 156.969 9.62646 156.978 9.61832C156.986 9.61017 156.998 9.60602 157.01 9.60689H157.357C157.371 9.60651 157.385 9.60966 157.397 9.61603C157.405 9.6244 157.411 9.63496 157.414 9.6465Z" fill="#111111"/>
</svg>
