<svg xmlns="http://www.w3.org/2000/svg" width="66" height="66" viewBox="0 0 66 66">
    <g fill="none" fill-rule="evenodd">
        <rect width="66" height="66" fill="#F7F7F7" rx="33"/>
        <path fill="#000" d="M40.813 27.75H25.187a.625.625 0 1 0 0 1.25h15.625a.625.625 0 1 0 0-1.25zM25.188 24h6.25a.625.625 0 1 0 0-1.25h-6.25a.625.625 0 1 0 0 1.25zM40.813 32.75H25.187a.625.625 0 1 0 0 1.25h15.625a.625.625 0 1 0 0-1.25zM40.813 37.75H25.187a.625.625 0 1 0 0 1.25h15.625a.625.625 0 1 0 0-1.25zM40.813 42.75H25.187a.625.625 0 1 0 0 1.25h15.625a.625.625 0 1 0 0-1.25z"/>
        <path fill="#FED100" d="M38.508 15.465v8.038l8.123-.493z"/>
        <path fill="#000" fill-rule="nonzero" d="M38.571 14H18.313v37.5h29.375V23.116L38.57 14zm.367 2.134l6.616 6.616h-6.617v-6.616zM19.561 50.25v-35h18.125V24h8.75v26.25H19.564z"/>
    </g>
</svg>
