<svg xmlns="http://www.w3.org/2000/svg" width="66" height="66" viewBox="0 0 66 66">
    <g fill="none" fill-rule="evenodd">
        <rect width="66" height="66" fill="#F7F7F7" rx="33"/>
        <path fill="#FED100" d="M39.842 47l6.037-6.647 1.07 1.047-.503 2.6-3.81 3z"/>
        <path fill="#000" fill-rule="nonzero" d="M24.064 37.967c2.963 3.541 6.529 6.33 10.6 8.303 1.55.734 3.622 1.606 5.931 1.755.143.006.28.012.423.012 1.55 0 2.795-.535 3.81-1.637a.136.136 0 0 0 .024-.03c.361-.436.772-.829 1.202-1.246.292-.28.59-.572.877-.87 1.326-1.383 1.326-3.138-.012-4.476l-3.74-3.74c-.636-.66-1.395-1.009-2.192-1.009-.796 0-1.562.349-2.216 1.002l-2.228 2.228c-.205-.118-.417-.224-.616-.323a7.697 7.697 0 0 1-.685-.374c-2.029-1.288-3.871-2.969-5.632-5.128-.89-1.127-1.488-2.073-1.905-3.038a37.464 37.464 0 0 0 1.662-1.624c.187-.193.38-.386.572-.58.673-.671 1.034-1.45 1.034-2.24 0-.79-.355-1.568-1.034-2.24l-1.854-1.855c-.218-.218-.424-.43-.635-.647a34.14 34.14 0 0 0-1.264-1.251c-.64-.63-1.394-.959-2.19-.959-.791 0-1.55.33-2.216.965l-2.328 2.328a4.783 4.783 0 0 0-1.425 3.062c-.119 1.487.155 3.068.865 4.979 1.089 2.956 2.732 5.701 5.172 8.633zm-4.519-13.482a3.292 3.292 0 0 1 .99-2.116l2.315-2.315c.361-.349.76-.53 1.145-.53.38 0 .766.181 1.12.542.418.386.81.79 1.233 1.22.212.218.43.436.647.66l1.855 1.855c.386.386.585.778.585 1.164 0 .386-.199.778-.585 1.164-.193.193-.386.392-.579.585-.578.585-1.12 1.139-1.717 1.668l-.032.03c-.516.517-.435 1.01-.31 1.383.005.018.012.03.018.05.48 1.15 1.145 2.246 2.185 3.553 1.867 2.303 3.834 4.09 6 5.465.267.174.554.311.821.448.25.125.48.243.685.374.025.012.043.025.068.037.206.106.405.156.604.156.498 0 .822-.318.927-.424l2.328-2.327c.361-.361.753-.554 1.14-.554.472 0 .858.292 1.1.554l3.754 3.746c.747.747.74 1.556-.019 2.347-.261.28-.535.548-.828.828-.435.423-.89.859-1.3 1.35-.716.772-1.569 1.133-2.67 1.133-.106 0-.218-.006-.324-.012-2.042-.131-3.94-.928-5.365-1.606-3.872-1.874-7.27-4.531-10.09-7.905-2.321-2.794-3.883-5.396-4.916-8.184-.642-1.712-.884-3.087-.785-4.339z"/>
    </g>
</svg>
