<svg width="140" height="32" viewBox="0 0 140 32" fill="none" xmlns="http://www.w3.org/2000/svg">
<path d="M0.300781 24.3968V10.0461C0.300781 9.8749 0.372666 9.70956 0.50798 9.6046C2.27346 8.23519 4.53302 8.91344 5.72892 9.57717C5.93991 9.69427 6.05898 9.92199 6.05898 10.1633V24.3856C6.05898 24.5893 5.95631 24.7815 5.77916 24.8819C3.69456 26.0639 1.59832 25.46 0.568067 24.8783C0.396082 24.7812 0.300781 24.5943 0.300781 24.3968Z" fill="#2B3077"/>
<path d="M8.03836 15.3252V24.7123H13.3167V16.1949C13.5806 14.4435 14.9662 14.1056 15.626 14.1556C17.5214 13.7957 18.2152 15.3652 18.3251 16.1949V24.7123H23.4835V15.3252C22.7398 10.0948 17.9353 8.74726 15.626 8.72727C10.4916 8.77525 8.42824 13.1459 8.03836 15.3252Z" fill="#2B3077"/>
<path d="M30.7113 13.7357C31.3591 12.0802 35.5997 13.0459 37.6391 13.7357L39.2586 10.1968C34.5561 7.79756 29.9015 8.95719 28.1621 9.83692C24.4432 11.9003 25.3329 15.1952 26.2427 16.5848C27.0344 18.1203 31.0911 18.8641 33.0205 19.044C34.628 19.3799 34.2702 20.1237 33.8903 20.4536C32.1628 21.0774 28.472 20.1937 26.8425 19.6738L25.253 23.2127C26.3326 24.2204 29.2217 24.7323 30.5313 24.8622C33.4404 25.1221 39.3905 24.5743 39.9184 20.3036C40.4462 16.033 35.7997 14.9053 33.4104 14.8753C31.7549 14.8274 30.9212 14.0956 30.7113 13.7357Z" fill="#2B3077"/>
<path d="M41.298 20.3036V5.81818H46.5463V8.75726H49.8153V13.0459H46.5463V19.044C46.9542 21.0594 48.8956 20.4236 49.8153 19.8538L51.0149 24.0825C43.8172 26.6497 41.5379 22.6329 41.298 20.3036Z" fill="#2B3077"/>
<path d="M51.7047 19.8538C54.6798 26.9076 60.5019 25.1521 63.0411 23.3927V24.9522H68.0196V17.4545C67.8756 10.0409 61.7815 8.56732 58.7525 8.75726C50.9549 10.3168 50.805 16.8047 51.7047 19.8538Z" fill="#2B3077"/>
<path d="M70.029 16.394V24.9522H75.3973V16.4648C75.5412 14.6894 77.0168 14.1256 77.7365 14.0656C79.9439 14.0656 80.3957 15.6651 80.3457 16.4648V24.9522H85.774V16.4648C85.798 14.6654 87.2836 14.1156 88.0233 14.0656C89.5828 13.9216 90.3526 15.2252 90.5425 15.895L90.7225 24.9522H95.9109V15.6251C95.359 10.3708 90.8424 8.85723 88.6531 8.75726C86.038 8.34938 83.8246 9.76694 83.0449 10.5267C80.9335 8.51133 78.2664 8.50733 77.1967 8.75726C72.8617 9.0577 70.843 12.5957 70.2005 14.8773C70.0618 15.3698 70.029 15.8823 70.029 16.394Z" fill="#2B3077"/>
<ellipse cx="105.658" cy="17.4845" rx="8.48734" ry="8.06748" fill="#2B3077"/>
<ellipse cx="105.689" cy="17.4545" rx="3.35895" ry="3.95876" fill="white"/>
<ellipse cx="131.45" cy="17.4845" rx="8.48734" ry="8.06748" fill="#2B3077"/>
<ellipse cx="131.481" cy="17.4545" rx="3.35895" ry="3.95876" fill="white"/>
<ellipse cx="59.3814" cy="17.0347" rx="3.35895" ry="3.95876" fill="white"/>
<path d="M115.794 25.8219V9.41705H121.072V26.9616C120.76 30.5844 117.143 31.83 115.374 32L113.604 27.9513C114.924 27.5674 115.614 26.3717 115.794 25.8219Z" fill="#2B3077"/>
<path d="M5.92967 9.93192C4.27918 11.3901 1.62553 10.5651 0.429085 9.93385C0.393962 9.91532 0.388304 9.86826 0.41667 9.84047C2.24149 8.05259 5.3022 9.03226 5.93882 9.85591C5.95704 9.87949 5.952 9.91219 5.92967 9.93192Z" fill="#FCB81B" stroke="#FCB81B" stroke-width="0.240033"/>
<ellipse cx="2.99906" cy="3.11902" rx="2.99906" ry="3.11902" fill="#EF582C"/>
</svg>
