<svg width="51" height="30" viewBox="0 0 51 30" fill="none" xmlns="http://www.w3.org/2000/svg">
<path d="M13.8378 2.49012C13.3125 1.45653 12.3435 0.699979 11.0984 0.350895C9.16292 -0.191809 7.21164 -0.106266 5.04012 0.616392C3.54866 1.11278 3.34474 1.29575 3.25263 2.22019C3.12273 3.52619 3.28991 3.60552 4.97445 3.0369C6.7543 2.43617 8.34318 2.26793 9.53614 2.55418C10.9781 2.90007 11.4447 3.61652 11.6471 5.79603L11.7641 7.05358L11.3367 6.94675C7.99854 6.11175 5.12033 6.532 3.57208 8.08007C1.83784 9.81448 1.86606 12.9843 3.63029 14.6106C4.59271 15.4976 5.5207 15.7585 7.36018 15.6591C9.00586 15.57 10.0794 15.1579 11.1238 14.2145L11.8269 13.5792L12.2255 14.2885C12.4449 14.6786 12.8167 15.124 13.052 15.2781C13.4577 15.5439 13.5262 15.5288 14.3688 14.9881C14.8576 14.6745 15.2576 14.313 15.2576 14.1849C15.2576 14.0567 15.0831 13.5658 14.8698 13.0941C14.5152 12.3095 14.4737 11.8577 14.3818 7.79967C14.2851 3.51767 14.2661 3.33239 13.8378 2.49012Z" fill="#232F3F"/>
<path d="M47.7011 2.12134C47.6336 1.07994 47.2389 0.734763 45.6937 0.365803C43.481 -0.162348 41.9642 -0.0961505 40.3506 0.598644C37.5721 1.79515 36.7597 5.09059 38.7356 7.14906C39.4867 7.93153 40.2997 8.33296 42.6238 9.06893C45.0218 9.82815 45.6857 10.3417 45.6857 11.4378C45.6857 12.0504 45.5858 12.2732 45.1276 12.6826C43.9895 13.6997 41.4009 13.7575 38.8973 12.8221C38.3803 12.629 37.8412 12.5156 37.6994 12.5699C37.4319 12.6725 37.3389 13.8038 37.5519 14.3591C37.9977 15.5209 42.9461 16.2345 45.1929 15.461C47.108 14.8017 48.3101 13.4507 48.54 11.6996C48.7197 10.3299 48.3822 9.363 47.3873 8.39916C46.643 7.6781 46.2657 7.48732 44.2642 6.82039C43.0121 6.40315 41.7361 5.91316 41.4286 5.73179C40.067 4.92838 40.1763 3.24135 41.6295 2.63423C42.5654 2.24308 44.7762 2.32525 46.1786 2.80317C46.8357 3.02714 47.4595 3.15705 47.5648 3.09192C47.6723 3.02555 47.7321 2.60015 47.7011 2.12134Z" fill="#232F3F"/>
<path d="M19.431 2.60512C19.2061 1.70038 18.9239 0.841777 18.804 0.697318C18.4909 0.320017 16.1758 0.325341 16.0307 0.703707C15.9739 0.851539 16.368 2.42889 16.9066 4.20874L16.958 4.3784C17.5029 6.17978 18.3997 9.14406 18.9861 11.0829C19.5912 13.0838 20.1607 14.8607 20.2516 15.0316C20.3877 15.2877 20.6655 15.3421 21.8346 15.3421C23.1885 15.3421 23.2602 15.3219 23.4233 14.8928C23.5172 14.6457 24.1306 12.17 24.786 9.39122C25.4415 6.61257 26.035 4.339 26.1051 4.339C26.175 4.339 26.3552 4.87798 26.5051 5.53692C27.3996 9.4638 28.797 14.9242 28.9567 15.1168C29.2092 15.4211 31.6525 15.4241 31.8984 15.1203C32.0454 14.9389 34.5548 7.1409 36.0636 2.17742C36.5595 0.546292 36.4887 0.434662 34.9585 0.434662C33.83 0.434662 33.6898 0.473882 33.5338 0.833969C33.372 1.20772 32.9403 2.8211 31.3145 9.13069C30.95 10.546 30.5997 11.8023 30.5362 11.9226C30.4728 12.0428 29.8345 9.64695 29.118 6.59855C28.4014 3.54997 27.7421 0.916138 27.6528 0.745234C27.5208 0.49234 27.2484 0.434662 26.1874 0.434662C25.3595 0.434662 24.8186 0.515589 24.7041 0.656499C24.6049 0.778598 23.9389 3.37285 23.2239 6.42179C22.509 9.47072 21.8707 11.8666 21.8054 11.7459C21.7006 11.5524 20.6415 7.4749 19.431 2.60512Z" fill="#232F3F"/>
<path d="M5.12695 10.9696C5.12695 9.78124 5.69521 8.98919 6.81292 8.61987C7.35633 8.44027 10.3802 8.5141 11.1338 8.72529C11.5276 8.83568 11.5437 8.89655 11.4287 9.83732C11.2727 11.1115 10.8995 11.8967 10.1942 12.4348C9.53477 12.9377 7.60124 13.4767 7.03174 13.3163C5.60021 13.1327 5.12695 12.3931 5.12695 10.9696Z" fill="white"/>
<path d="M50.5935 20.533C50.5955 19.5018 50.5016 19.3802 49.4797 19.0888C48.6302 18.8465 45.3303 18.8909 44.2444 19.1591C42.464 19.599 40.788 20.6243 41.3159 20.9506C41.4263 21.0188 42.4723 20.978 43.6404 20.8601C47.0129 20.5199 48.2401 20.8413 48.2344 22.0639C48.2307 22.8678 47.7361 24.7815 47.1062 26.4289C46.335 28.4466 46.5557 28.6619 47.9318 27.2341C49.3775 25.7341 50.5895 22.6833 50.5935 20.533Z" fill="#FC9907"/>
<path d="M18.8662 26.0364C12.8089 25.099 8.24955 23.6599 3.19183 21.089C0.578585 19.7607 0.462519 19.7142 0.261446 19.9154C-0.0173594 20.1942 0.224356 20.5071 1.6072 21.6568C6.48372 25.7109 12.2295 28.3634 18.7842 29.5867C20.7074 29.9455 21.5513 29.9995 25.2551 30C28.9308 30.0007 29.7971 29.9464 31.5778 29.6042C36.8756 28.5864 41.0071 27.022 44.6552 24.6528C45.9722 23.7974 46.1247 23.6425 46.075 23.2098C45.9978 22.5409 45.3635 22.4973 43.9462 23.0634C40.7507 24.3399 36.8511 25.3762 32.788 26.0289C29.0661 26.6266 22.7027 26.63 18.8662 26.0364Z" fill="#FC9907"/>
</svg>
