<svg width="108" height="32" viewBox="0 0 108 32" fill="none" xmlns="http://www.w3.org/2000/svg">
<g clip-path="url(#clip0_537_109)">
<path fill-rule="evenodd" clip-rule="evenodd" d="M5.09375 25.9782H25.5319V5.33362H5.09375V25.9782Z" fill="white"/>
<path fill-rule="evenodd" clip-rule="evenodd" d="M24.8644 25.3302L17.4479 19.0479C17.4479 19.0479 16.4432 18.0571 15.3163 18.0571C14.1781 18.0571 13.1734 19.0479 13.1734 19.0479L5.75912 25.3302L5.73536 25.3085L11.956 17.8171C11.956 17.8171 12.9346 16.8057 12.9346 15.6537C12.9346 14.5131 11.956 13.5005 11.956 13.5005L5.73536 6.00336L5.75912 5.97708L13.1734 12.2662C13.1734 12.2662 14.1781 13.2594 15.3163 13.2594C16.4432 13.2594 17.4479 12.2662 17.4479 12.2662L24.8644 5.97708L24.895 6.01022L18.6619 13.5005C18.6619 13.5005 17.69 14.5131 17.69 15.6537C17.69 16.8057 18.6619 17.8171 18.6619 17.8171L24.895 25.3062L24.8644 25.3302ZM28.3345 15.6537V15.6514C28.3345 13.6205 28.416 11.7999 29.9072 8.60222C30.3383 7.67194 31.2921 6.31651 29.8868 4.73479C28.7452 3.58508 27.4486 3.77365 26.5751 4.28222C27.0775 3.39994 27.2642 2.08451 26.1237 0.930221C24.5589 -0.484636 23.2125 0.476507 22.2961 0.914221C19.127 2.42394 17.3336 2.50736 15.3163 2.50736C13.291 2.50736 11.4955 2.42394 8.33312 0.914221C7.41214 0.476507 6.06008 -0.484636 4.49984 0.930221C3.35936 2.08451 3.55171 3.39994 4.05406 4.28222C3.17833 3.77136 1.87945 3.58508 0.736712 4.73479C-0.667391 6.31651 0.290929 7.67194 0.714083 8.60222C2.21436 11.7999 2.29695 13.6205 2.29695 15.6537C2.29695 17.6925 2.21436 19.5177 0.714083 22.7131C0.290929 23.6365 -0.667391 25.0011 0.736712 26.5817C1.87945 27.7279 3.17833 27.5382 4.05406 27.0354C3.55171 27.9199 3.35936 29.2319 4.49984 30.3748C6.06008 31.7999 7.41214 30.8365 8.33312 30.3988C11.4977 28.8902 13.291 28.8102 15.3163 28.8102C17.3336 28.8102 19.127 28.8902 22.295 30.3988C23.2125 30.8365 24.5589 31.7999 26.1237 30.3748C27.2642 29.2319 27.073 27.9199 26.5729 27.0354C27.4486 27.5382 28.7452 27.7348 29.8868 26.5817C31.2921 25.0011 30.3383 23.6365 29.9072 22.7131C28.416 19.5131 28.3345 17.6925 28.3345 15.6537Z" fill="#FF3333"/>
<path fill-rule="evenodd" clip-rule="evenodd" d="M52.531 27.6411C55.0734 26.7211 58.2199 22.3394 57.6983 15.4388C57.1959 8.76339 54.6762 3.51882 47.9669 3.02625C47.9669 3.02625 46.6963 2.93368 45.6316 2.92911C44.49 2.92111 44.2456 2.88225 44.1607 4.11425C44.0148 6.41939 43.9729 24.3725 44.1189 26.9634C44.1358 27.3188 44.1743 28.1714 45.6384 28.3211C48.3153 28.5828 50.5295 28.3725 52.531 27.6411ZM49.9355 1.88911C55.613 1.86282 63.0839 5.79425 63.0545 15.616C63.0352 24.1588 56.9278 29.4205 51.2876 29.4205L36.9648 29.424L36.9829 29.1188C37.7885 28.9737 38.6937 28.4663 38.8441 27.9245C39.3182 25.8663 39.2107 7.03425 38.9233 3.93254C38.8328 2.96225 38.0748 2.33711 37.1549 2.18397L37.1266 1.88911C37.1266 1.88911 48.6638 1.89597 49.9355 1.88911ZM81.3383 22.672C81.4515 16.7554 77.1577 15.1863 72.7112 14.9405C72.6184 14.9337 72.6535 14.712 72.7225 14.7005C74.1673 14.6423 79.9116 13.9703 79.6785 8.4274C79.4455 3.02625 75.3893 2.90511 73.906 2.88225C72.6954 2.86625 72.4317 2.86625 71.9203 2.89139C71.0593 2.92911 70.8443 2.99311 70.8489 3.93711C70.8489 4.05711 70.6599 13.6674 70.5468 20.424C70.4936 24.096 70.4789 26.9234 70.4789 26.9234C70.5004 27.5965 70.4178 28.2788 72.0584 28.3565C73.7521 28.44 75.9358 28.5108 77.4643 28.1828C78.8639 27.8811 81.2433 26.8457 81.3383 22.672ZM79.5812 14.7177C86.2601 16.3897 86.6628 21.2594 86.5701 22.6285C86.2646 28.7257 81.146 29.424 79.0845 29.424H63.3283L63.3464 29.1165C64.4914 28.9577 65.3501 28.3245 65.3501 26.2925L65.4429 5.29482C65.4689 3.01825 64.8761 2.32225 63.6281 2.17368L63.5998 1.88911H75.5137C77.7008 1.88911 84.2868 1.45025 84.848 7.56568C85.2938 12.4594 79.9704 14.504 79.5812 14.7177ZM105.273 1.97254L105.543 1.97025L105.636 6.87654L105.338 6.87425C104.86 4.87654 102.959 2.99311 99.147 2.79654C94.6451 2.55768 92.699 5.2674 92.6696 7.83197C92.6436 11.24 95.2764 11.944 99.1764 12.9051C101.014 13.3588 107.823 14.256 107.277 21.984C106.9 27.3817 102.286 29.9485 95.7527 29.7451C95.7527 29.7451 93.0384 29.6537 89.247 28.592C88.5455 28.3908 88.3589 28.6297 88.0771 29.152L87.7671 29.168L87.7773 23.8777L88.0771 23.8925C88.2265 24.4285 88.2683 25.4263 89.2301 26.272C89.9304 26.896 91.5766 28.4365 95.187 28.4765C98.7307 28.5245 101.668 27.0137 102.062 22.9977C102.169 21.9177 102.056 19.4457 99.6663 18.3188C97.7972 17.4365 92.6074 16.8548 90.0922 14.6274C90.0922 14.6274 87.1086 12.528 87.5793 8.60911C88.2401 3.07082 92.8167 1.68568 96.9283 1.60111C96.9283 1.60111 100.607 1.56454 103.537 2.32911C103.537 2.32911 104.254 2.52568 104.848 2.29711C105.089 2.21597 105.202 2.06397 105.273 1.97254Z" fill="black"/>
</g>
<defs>
<clipPath id="clip0_537_109">
<rect width="107.429" height="32" fill="white"/>
</clipPath>
</defs>
</svg>
